<svg width="279" height="7" viewBox="0 0 279 7" fill="none" xmlns="http://www.w3.org/2000/svg">
<path fill-rule="evenodd" clip-rule="evenodd" d="M47.7022 4.77673C40.8603 4.99564 33.7863 5.22187 26.8245 5.39495C24.3029 5.45736 12.651 5.67384 11.0281 5.6831C10.086 5.68895 8.84692 5.76647 7.5364 5.84887C5.91228 5.95077 2.89222 6.14042 2.45113 5.94393C2.4417 5.93955 2.42054 5.90395 2.49448 5.81814C2.81191 5.45052 6.86329 5.1424 14.5364 4.90252C15.6978 4.86595 16.5354 4.83961 16.979 4.81231C18.9996 4.68652 21.0368 4.57437 23.0829 4.47344C40.5161 4.2321 58.0257 3.56807 75.0943 2.91961C78.6677 2.78407 82.2703 2.64753 85.8921 2.51345C132.391 1.26237 176.373 1.28677 216.893 2.58807C217.031 2.59294 217.167 2.59683 217.303 2.60171C173.559 2.6373 123.088 2.89521 70.9384 4.10143C63.1837 4.28086 55.3129 4.53295 47.7022 4.77673ZM243.739 2.21752C245.524 2.29407 247.32 2.3594 249.12 2.42474C251.762 2.5203 254.492 2.61879 257.143 2.7553C257.996 2.79918 260.057 2.87573 262.442 2.96349C262.766 2.97568 263.108 2.98836 263.463 3.00152C262.563 2.98982 261.659 2.96981 260.773 2.9508C259.82 2.92983 258.866 2.90937 257.918 2.89767C245.866 2.75091 233.562 2.29601 221.663 1.85671C218.587 1.74262 215.515 1.6295 212.449 1.52078C208.708 1.38914 204.962 1.27212 201.205 1.16973C207.237 1.25408 213.158 1.38769 219.086 1.57247C222.437 1.67681 225.879 1.74652 229.206 1.81429C233.996 1.91181 238.949 2.01226 243.739 2.21752ZM267.327 2.11416C264.454 1.8972 261.039 1.64999 257.506 1.46325C254.629 1.31162 251.665 1.21314 248.799 1.11855C247.198 1.0659 245.601 1.01324 244.017 0.951318C239.001 0.755319 233.859 0.652922 228.886 0.55346C225.735 0.491052 222.477 0.425737 219.298 0.337976C209.883 0.0776188 200.176 -0.0272095 188.741 0.00594453L182.026 0.024957C161.281 0.081514 139.831 0.14049 118.723 0.611474C113.014 0.738727 107.272 0.899644 101.534 1.08004C89.0957 1.31797 77.0078 1.61538 65.4529 1.92693C61.789 2.02591 58.0946 2.11221 54.3874 2.199C41.8648 2.49153 28.9177 2.7948 16.5341 3.60317C16.0828 3.63243 15.2096 3.66216 14.103 3.70019C13.0067 3.73773 11.9141 3.77722 10.8484 3.82208C9.24849 3.8367 7.64986 3.84839 6.05251 3.85571C5.65859 3.85766 5.34115 3.98151 5.34625 4.13265C5.34625 4.13753 5.34753 4.1424 5.34753 4.14678C2.46261 4.39446 0.396121 4.75917 0.0582933 5.34911C-0.104884 5.63434 0.0761398 5.90199 0.580969 6.12286C2.17067 6.81909 7.25339 6.99999 12.1105 6.99999C15.1573 6.99999 18.1161 6.9288 20.0666 6.86932C37.8478 6.72354 55.9414 6.2116 73.4383 5.71673C81.5182 5.48806 89.8733 5.25208 98.0717 5.0556C105.55 4.87617 113.311 4.65483 120.818 4.44079C149.252 3.62998 178.656 2.79187 206.514 3.72457C227.946 4.44226 252.689 4.72699 278.068 4.54757C278.302 4.54611 278.52 4.50028 278.65 4.4252L278.881 4.29159C279.062 4.18676 279.034 4.04829 278.814 3.95565C277.901 3.57487 276.575 3.37256 275.051 3.2731C275.1 2.94887 274.431 2.65145 267.327 2.11416Z" fill="url(#paint0_linear_1115_6434)"/>
<defs>
<linearGradient id="paint0_linear_1115_6434" x1="104.739" y1="1.7619" x2="191.641" y2="1.7619" gradientUnits="userSpaceOnUse">
<stop stop-color="#ED1915"/>
<stop offset="1" stop-color="#FB7103"/>
</linearGradient>
</defs>
</svg>
