<svg width="161" height="7" viewBox="0 0 161 7" fill="none" xmlns="http://www.w3.org/2000/svg">
<path fill-rule="evenodd" clip-rule="evenodd" d="M27.5271 4.77673C23.5789 4.99564 19.4967 5.22187 15.4793 5.39495C14.0242 5.45736 7.30039 5.67384 6.3639 5.6831C5.82026 5.68895 5.10521 5.76647 4.34896 5.84887C3.41175 5.95077 1.66899 6.14042 1.41445 5.94393C1.40901 5.93955 1.3968 5.90395 1.43947 5.81814C1.62264 5.45052 3.96054 5.1424 8.38841 4.90252C9.05859 4.86595 9.54191 4.83961 9.79792 4.81231C10.9639 4.68652 12.1395 4.57437 13.3202 4.47344C23.3802 4.2321 33.4844 3.56807 43.334 2.91961C45.396 2.78407 47.475 2.64753 49.565 2.51345C76.3978 1.26237 101.778 1.28677 125.16 2.58807C125.24 2.59294 125.319 2.59683 125.397 2.60171C100.154 2.6373 71.029 2.89521 40.9358 4.10143C36.4608 4.28086 31.9189 4.53295 27.5271 4.77673ZM140.652 2.21752C141.682 2.29407 142.719 2.3594 143.758 2.42474C145.282 2.5203 146.858 2.61879 148.387 2.7553C148.879 2.79918 150.069 2.87573 151.445 2.96349C151.632 2.97568 151.829 2.98836 152.034 3.00152C151.515 2.98982 150.993 2.96981 150.482 2.9508C149.932 2.92983 149.382 2.90937 148.834 2.89767C141.879 2.75091 134.78 2.29601 127.913 1.85671C126.138 1.74262 124.365 1.6295 122.596 1.52078C120.438 1.38914 118.275 1.27212 116.107 1.16973C119.589 1.25408 123.005 1.38769 126.426 1.57247C128.36 1.67681 130.346 1.74652 132.266 1.81429C135.03 1.91181 137.888 2.01226 140.652 2.21752ZM154.264 2.11416C152.606 1.8972 150.635 1.64999 148.597 1.46325C146.936 1.31162 145.226 1.21314 143.572 1.11855C142.648 1.0659 141.726 1.01324 140.813 0.951318C137.918 0.755319 134.951 0.652922 132.081 0.55346C130.263 0.491052 128.383 0.425737 126.549 0.337976C121.115 0.0776188 115.514 -0.0272095 108.915 0.00594453L105.04 0.024957C93.0691 0.081514 80.6911 0.14049 68.5102 0.611474C65.2159 0.738727 61.9025 0.899644 58.5914 1.08004C51.4137 1.31797 44.4382 1.61538 37.7703 1.92693C35.656 2.02591 33.5241 2.11221 31.3848 2.199C24.1585 2.49153 16.6873 2.7948 9.54118 3.60317C9.28076 3.63243 8.77684 3.66216 8.1383 3.70019C7.50564 3.73773 6.87519 3.77722 6.26018 3.82208C5.33694 3.8367 4.41443 3.84839 3.49267 3.85571C3.26535 3.85766 3.08217 3.98151 3.08511 4.13265C3.08511 4.13753 3.08585 4.1424 3.08585 4.14678C1.42108 4.39446 0.228586 4.75917 0.0336388 5.34911C-0.0605244 5.63434 0.0439373 5.90199 0.335255 6.12286C1.25261 6.81909 4.18565 6.99999 6.98848 6.99999C8.74668 6.99999 10.4541 6.9288 11.5797 6.86932C21.8405 6.72354 32.2816 6.2116 42.3784 5.71673C47.0409 5.48806 51.8624 5.25208 56.5934 5.0556C60.9087 4.87617 65.3873 4.65483 69.7196 4.44079C86.1275 3.62998 103.095 2.79187 119.171 3.72457C131.538 4.44226 145.817 4.72699 160.462 4.54757C160.597 4.54611 160.723 4.50028 160.798 4.4252L160.931 4.29159C161.036 4.18676 161.02 4.04829 160.892 3.95565C160.366 3.57487 159.601 3.37256 158.721 3.2731C158.749 2.94887 158.363 2.65145 154.264 2.11416Z" fill="url(#paint0_linear_1407_6489)"/>
<defs>
<linearGradient id="paint0_linear_1407_6489" x1="60.441" y1="1.7619" x2="110.589" y2="1.7619" gradientUnits="userSpaceOnUse">
<stop stop-color="#ED1915"/>
<stop offset="1" stop-color="#FB7103"/>
</linearGradient>
</defs>
</svg>
