<svg width="24" height="24" viewBox="0 0 24 24" fill="none" xmlns="http://www.w3.org/2000/svg">
<path d="M4.99422 3.90637C4.73832 3.90637 4.47072 3.99238 4.27542 4.18738C3.88492 4.57838 3.88492 5.23437 4.27542 5.62537L10.5567 11.9064L4.27542 18.1874C3.88492 18.5784 3.88492 19.2344 4.27542 19.6254C4.66602 20.0154 5.32242 20.0154 5.71302 19.6254L11.9942 13.3444L18.2754 19.6254C18.666 20.0154 19.3224 20.0154 19.713 19.6254C20.1035 19.2344 20.1035 18.5784 19.713 18.1874L13.4317 11.9064L19.713 5.62537C20.1035 5.23437 20.1035 4.57838 19.713 4.18738C19.5177 3.99238 19.25 3.90637 18.9942 3.90637C18.7383 3.90637 18.4708 3.99238 18.2754 4.18738L11.9942 10.4684L5.71302 4.18738C5.51772 3.99238 5.25012 3.90637 4.99422 3.90637Z" fill="#101118"/>
</svg>
