<svg width="80" height="80" viewBox="0 0 80 80" fill="none" xmlns="http://www.w3.org/2000/svg">
<circle cx="40" cy="40" r="40" fill="white"/>
<g clip-path="url(#clip0_1115_6099)">
<path d="M30.1375 26.0125C30.5062 27.0813 32.9687 33.75 32.9937 33.75C33.0312 33.7438 39.2687 26.0813 39.3 25.9875C39.3125 25.9625 37.25 25.9375 34.7187 25.9375C31.0625 25.9375 30.1187 25.9563 30.1375 26.0125Z" fill="url(#paint0_linear_1115_6099)"/>
<path d="M41.6938 25.9813C41.7 26.075 47.9125 33.6563 47.9687 33.6438C48.0125 33.6375 50.6062 26.7938 50.85 26.0438C50.8812 25.9438 50.6375 25.9375 46.2875 25.9375C43.7562 25.9375 41.6875 25.9563 41.6938 25.9813Z" fill="url(#paint1_linear_1115_6099)"/>
<path d="M37.2562 30.2688L34.05 34.2188L37.275 34.2375C39.05 34.2438 41.95 34.2438 43.725 34.2375L46.95 34.2188L43.75 30.2813C41.9937 28.1125 40.5375 26.3375 40.5125 26.3313C40.4875 26.3188 39.025 28.0938 37.2562 30.2688Z" fill="url(#paint2_linear_1115_6099)"/>
<path d="M26.825 30.4313C25.55 32.4875 24.5 34.1813 24.5 34.2063C24.5 34.2313 26.175 34.25 28.2188 34.25C30.2625 34.25 31.9375 34.2313 31.9375 34.2125C31.9375 34.1375 29.2375 26.7813 29.2 26.7438C29.175 26.7188 28.1063 28.3813 26.825 30.4313Z" fill="url(#paint3_linear_1115_6099)"/>
<path d="M50.4063 30.3875C49.65 32.4188 49.025 34.1188 49.0125 34.1625C48.9938 34.2375 49.6188 34.25 52.7438 34.25C54.8125 34.25 56.5 34.2313 56.5 34.2063C56.5 34.15 51.85 26.6938 51.8125 26.6938C51.7938 26.6875 51.1625 28.35 50.4063 30.3875Z" fill="url(#paint4_linear_1115_6099)"/>
<path d="M24.6625 35.45C24.7563 35.6 38.4563 52.6 38.6063 52.75C38.7563 52.9 38.7625 52.9 38.7188 52.7688C38.7 52.6938 37.2625 48.7563 35.5313 44.0188L32.3875 35.4063L28.5 35.3875C25.5062 35.375 24.625 35.3938 24.6625 35.45Z" fill="url(#paint5_linear_1115_6099)"/>
<path d="M33.5938 35.4813C34.0063 36.725 40.3625 53.95 40.4 53.95C40.4438 53.9438 44.5188 43.0875 47.2063 35.825L47.375 35.375H40.4625C33.9125 35.375 33.5562 35.3813 33.5938 35.4813Z" fill="url(#paint6_linear_1115_6099)"/>
<path d="M48.4937 35.5437C48.4562 35.6437 46.9688 39.625 45.1875 44.4062C43.4062 49.1875 41.925 53.1438 41.9 53.2125C41.875 53.2875 41.8812 53.3188 41.925 53.3063C41.9812 53.2875 56.2063 35.6625 56.3375 35.45C56.3688 35.3937 55.4688 35.375 52.4688 35.375H48.5625L48.4937 35.5437Z" fill="url(#paint7_linear_1115_6099)"/>
</g>
<defs>
<linearGradient id="paint0_linear_1115_6099" x1="20.5" y1="22.7699" x2="60.9239" y2="46.3721" gradientUnits="userSpaceOnUse">
<stop stop-color="#EE1A13"/>
<stop offset="1" stop-color="#FB6F03"/>
</linearGradient>
<linearGradient id="paint1_linear_1115_6099" x1="20.5" y1="22.7699" x2="60.9239" y2="46.3721" gradientUnits="userSpaceOnUse">
<stop stop-color="#EE1A13"/>
<stop offset="1" stop-color="#FB6F03"/>
</linearGradient>
<linearGradient id="paint2_linear_1115_6099" x1="20.5" y1="22.7699" x2="60.9239" y2="46.3721" gradientUnits="userSpaceOnUse">
<stop stop-color="#EE1A13"/>
<stop offset="1" stop-color="#FB6F03"/>
</linearGradient>
<linearGradient id="paint3_linear_1115_6099" x1="20.5" y1="22.7699" x2="60.9239" y2="46.3721" gradientUnits="userSpaceOnUse">
<stop stop-color="#EE1A13"/>
<stop offset="1" stop-color="#FB6F03"/>
</linearGradient>
<linearGradient id="paint4_linear_1115_6099" x1="20.5" y1="22.7699" x2="60.9239" y2="46.3721" gradientUnits="userSpaceOnUse">
<stop stop-color="#EE1A13"/>
<stop offset="1" stop-color="#FB6F03"/>
</linearGradient>
<linearGradient id="paint5_linear_1115_6099" x1="20.5" y1="22.7699" x2="60.9239" y2="46.3721" gradientUnits="userSpaceOnUse">
<stop stop-color="#EE1A13"/>
<stop offset="1" stop-color="#FB6F03"/>
</linearGradient>
<linearGradient id="paint6_linear_1115_6099" x1="20.5" y1="22.7699" x2="60.9239" y2="46.3721" gradientUnits="userSpaceOnUse">
<stop stop-color="#EE1A13"/>
<stop offset="1" stop-color="#FB6F03"/>
</linearGradient>
<linearGradient id="paint7_linear_1115_6099" x1="20.5" y1="22.7699" x2="60.9239" y2="46.3721" gradientUnits="userSpaceOnUse">
<stop stop-color="#EE1A13"/>
<stop offset="1" stop-color="#FB6F03"/>
</linearGradient>
<clipPath id="clip0_1115_6099">
<rect width="32" height="32" fill="white" transform="translate(24.5 24)"/>
</clipPath>
</defs>
</svg>
