<svg width="16" height="16" viewBox="0 0 16 16" fill="none" xmlns="http://www.w3.org/2000/svg">
<path d="M6.99922 0.0476561C5.7836 0.197656 4.60547 0.635156 3.58984 1.31016C2.01484 2.35703 0.867969 3.88828 0.330469 5.66953C0.202344 6.08203 0.0773438 6.71016 0.0304688 7.13203C-0.0101563 7.52266 -0.0101563 8.47891 0.0304688 8.86953C0.367969 12.0383 2.60859 14.7445 5.66797 15.6695C6.08047 15.7977 6.7086 15.9227 7.13047 15.9695C7.5211 16.0102 8.47735 16.0102 8.86797 15.9695C10.718 15.7727 12.4336 14.932 13.7523 13.5758C14.6555 12.6414 15.2961 11.5602 15.668 10.332C15.8992 9.57266 15.9992 8.86953 15.9992 8.00078C15.9992 7.34766 15.968 6.98828 15.8555 6.42266C15.2898 3.54766 13.1461 1.18516 10.3305 0.332031C9.91797 0.203906 9.28985 0.0789061 8.86797 0.0320311C8.4586 -0.0117188 7.40235 -0.00234413 6.99922 0.0476561ZM11.4461 4.54141C11.1242 4.81016 8.04922 7.22578 8.01485 7.23828C7.9836 7.25078 6.8461 6.39766 4.40859 4.52578C4.33672 4.47266 4.43984 4.46953 7.9336 4.46953H11.5367L11.4461 4.54141ZM11.968 8.56328V11.532H7.93672H3.90547V8.60703V5.68203L4.00859 5.75703C4.06172 5.79766 4.90234 6.43516 5.87422 7.17266C6.84297 7.90703 7.6836 8.52891 7.73985 8.55078C7.91485 8.62578 8.12422 8.60703 8.2836 8.50391C8.3586 8.45391 9.21485 7.78203 10.1867 7.00703C11.1586 6.23203 11.9555 5.59766 11.9617 5.59453C11.9648 5.59453 11.968 6.92891 11.968 8.56328Z" fill="#BDBEC4"/>
</svg>
