<svg width="24" height="25" viewBox="0 0 24 25" fill="none" xmlns="http://www.w3.org/2000/svg">
<rect y="0.993652" width="24" height="24" rx="12" fill="#BDBDC4"/>
<path d="M12.0007 6.32568C13.812 6.32568 14.038 6.33235 14.7487 6.36568C15.4587 6.39902 15.942 6.51035 16.3673 6.67568C16.8073 6.84502 17.178 7.07435 17.5487 7.44435C17.8876 7.77761 18.15 8.18074 18.3173 8.62568C18.482 9.05035 18.594 9.53435 18.6273 10.2444C18.6587 10.955 18.6673 11.181 18.6673 12.9924C18.6673 14.8037 18.6607 15.0297 18.6273 15.7404C18.594 16.4504 18.482 16.9337 18.3173 17.359C18.1504 17.8042 17.8881 18.2074 17.5487 18.5404C17.2153 18.8792 16.8122 19.1415 16.3673 19.309C15.9427 19.4737 15.4587 19.5857 14.7487 19.619C14.038 19.6504 13.812 19.659 12.0007 19.659C10.1893 19.659 9.96332 19.6524 9.25265 19.619C8.54265 19.5857 8.05932 19.4737 7.63398 19.309C7.18887 19.142 6.78567 18.8796 6.45265 18.5404C6.11359 18.2071 5.85127 17.804 5.68398 17.359C5.51865 16.9344 5.40732 16.4504 5.37398 15.7404C5.34265 15.0297 5.33398 14.8037 5.33398 12.9924C5.33398 11.181 5.34065 10.955 5.37398 10.2444C5.40732 9.53368 5.51865 9.05102 5.68398 8.62568C5.85081 8.18047 6.11319 7.77723 6.45265 7.44435C6.78577 7.10517 7.18894 6.84284 7.63398 6.67568C8.05932 6.51035 8.54198 6.39902 9.25265 6.36568C9.96332 6.33435 10.1893 6.32568 12.0007 6.32568ZM12.0007 9.65902C11.1166 9.65902 10.2687 10.0102 9.64363 10.6353C9.01851 11.2604 8.66732 12.1083 8.66732 12.9924C8.66732 13.8764 9.01851 14.7243 9.64363 15.3494C10.2687 15.9745 11.1166 16.3257 12.0007 16.3257C12.8847 16.3257 13.7326 15.9745 14.3577 15.3494C14.9828 14.7243 15.334 13.8764 15.334 12.9924C15.334 12.1083 14.9828 11.2604 14.3577 10.6353C13.7326 10.0102 12.8847 9.65902 12.0007 9.65902ZM16.334 9.49235C16.334 9.27134 16.2462 9.05938 16.0899 8.90309C15.9336 8.74681 15.7217 8.65902 15.5007 8.65902C15.2796 8.65902 15.0677 8.74681 14.9114 8.90309C14.7551 9.05938 14.6673 9.27134 14.6673 9.49235C14.6673 9.71336 14.7551 9.92533 14.9114 10.0816C15.0677 10.2379 15.2796 10.3257 15.5007 10.3257C15.7217 10.3257 15.9336 10.2379 16.0899 10.0816C16.2462 9.92533 16.334 9.71336 16.334 9.49235ZM12.0007 10.9924C12.5311 10.9924 13.0398 11.2031 13.4149 11.5781C13.7899 11.9532 14.0007 12.4619 14.0007 12.9924C14.0007 13.5228 13.7899 14.0315 13.4149 14.4066C13.0398 14.7816 12.5311 14.9924 12.0007 14.9924C11.4702 14.9924 10.9615 14.7816 10.5864 14.4066C10.2114 14.0315 10.0007 13.5228 10.0007 12.9924C10.0007 12.4619 10.2114 11.9532 10.5864 11.5781C10.9615 11.2031 11.4702 10.9924 12.0007 10.9924Z" fill="#1B1D33"/>
</svg>
