<svg width="24" height="25" viewBox="0 0 24 25" fill="none" xmlns="http://www.w3.org/2000/svg">
<rect y="0.993652" width="24" height="24" rx="12" fill="white"/>
<path d="M8.62565 8.32765C8.62547 8.68127 8.48483 9.02034 8.23466 9.27027C7.98448 9.52019 7.64527 9.6605 7.29165 9.66032C6.93803 9.66014 6.59896 9.5195 6.34904 9.26932C6.09911 9.01915 5.95881 8.67994 5.95898 8.32632C5.95916 7.9727 6.09981 7.63363 6.34998 7.38371C6.60015 7.13378 6.93936 6.99348 7.29298 6.99365C7.64661 6.99383 7.98567 7.13447 8.2356 7.38465C8.48552 7.63482 8.62583 7.97403 8.62565 8.32765ZM8.66565 10.6477H5.99898V18.9943H8.66565V10.6477ZM12.879 10.6477H10.2257V18.9943H12.8523V14.6143C12.8523 12.1743 16.0323 11.9477 16.0323 14.6143V18.9943H18.6657V13.7077C18.6657 9.59432 13.959 9.74765 12.8523 11.7677L12.879 10.6477Z" fill="#1B1D33"/>
</svg>
