<svg width="134" height="66" viewBox="0 0 134 66" fill="none" xmlns="http://www.w3.org/2000/svg">
<g clip-path="url(#clip0_1115_6379)">
<path d="M73.8849 58.0017V53.1406H74.9698C75.5482 53.1406 75.977 53.2631 76.2526 53.5053C76.5294 53.7489 76.6678 54.1245 76.6678 54.6349C76.6678 55.1057 76.5281 55.4759 76.2501 55.744C75.9721 56.0121 75.5865 56.1454 75.0934 56.1454H74.8339V58.0017H73.8849ZM74.8351 55.3357H74.9711C75.2281 55.3357 75.416 55.2772 75.5321 55.1602C75.6483 55.0431 75.7064 54.854 75.7064 54.5954C75.7064 54.3559 75.6483 54.1817 75.5321 54.0728C75.416 53.964 75.2281 53.9082 74.9711 53.9082H74.8351V55.3357Z" fill="#585655"/>
<path d="M78.0567 58.0017V53.1406H79.1284V57.1185H80.8397V58.0017H78.0567Z" fill="#585655"/>
<path d="M80.8419 58.0017L82.4129 53.1406H83.4221L85.0163 58.0017H84.0117L83.6765 56.9688H82.0765L81.7887 58.0017H80.8419ZM83.4707 56.1522L83.0083 54.5818C82.9956 54.5355 82.9782 54.4552 82.9574 54.3423C82.9366 54.2293 82.9146 54.0905 82.8927 53.9272C82.8684 54.0851 82.8441 54.2252 82.8222 54.3504C82.799 54.4756 82.7829 54.5587 82.7713 54.6008L82.3251 56.1509H83.4707V56.1522Z" fill="#585655"/>
<path d="M86.4082 58.0017V53.1406H87.3896L89.3463 55.9699C89.4032 56.0502 89.4638 56.1618 89.5319 56.3074C89.6 56.453 89.6693 56.6231 89.7423 56.8204C89.72 56.6762 89.7039 56.5333 89.694 56.3918C89.6841 56.2502 89.6792 56.0733 89.6792 55.861V53.1406H90.5826V58.0017H89.6557L87.6446 55.1193C87.5876 55.039 87.527 54.9275 87.4602 54.7818C87.3933 54.6376 87.3228 54.4634 87.2485 54.262C87.2708 54.4022 87.2869 54.5423 87.2968 54.6852C87.3067 54.8281 87.3117 55.0077 87.3117 55.2255V58.0017H86.4082Z" fill="#585655"/>
<path d="M95.6451 58.0017V55.7841L94.0587 53.142H95.2321L95.9269 54.4726C95.961 54.5392 95.9964 54.6236 96.0318 54.7242C96.0685 54.8263 96.1052 54.9433 96.1433 55.0766C96.1734 54.9637 96.2062 54.8576 96.2442 54.7583C96.2809 54.6589 96.3242 54.561 96.3714 54.4657L97.061 53.1406H98.2331L96.6467 55.7827V58.0003H95.6451V58.0017Z" fill="#585655"/>
<path d="M103.107 55.5724C103.107 55.9032 103.045 56.217 102.924 56.5127C102.803 56.8085 102.628 57.0678 102.399 57.2909C102.162 57.5205 101.896 57.6969 101.599 57.8188C101.301 57.9407 100.995 58.0017 100.677 58.0017C100.398 58.0017 100.126 57.9537 99.8581 57.8577C99.5912 57.7617 99.3473 57.6242 99.1239 57.444C98.8366 57.2118 98.6182 56.9342 98.465 56.6126C98.3117 56.2897 98.2364 55.9421 98.2364 55.5711C98.2364 55.2378 98.2964 54.9252 98.4165 54.6334C98.5365 54.3416 98.714 54.0809 98.9464 53.8527C99.1749 53.627 99.4405 53.4519 99.7419 53.3274C100.045 53.2029 100.355 53.1406 100.675 53.1406C100.993 53.1406 101.302 53.2029 101.602 53.3274C101.902 53.4519 102.168 53.627 102.398 53.8527C102.629 54.0809 102.804 54.3416 102.924 54.6347C103.047 54.9291 103.107 55.2417 103.107 55.5724ZM100.677 57.121C101.09 57.121 101.431 56.9732 101.701 56.6787C101.97 56.3843 102.104 56.016 102.104 55.5724C102.104 55.1341 101.968 54.7644 101.696 54.4648C101.424 54.1652 101.084 54.0148 100.677 54.0148C100.263 54.0148 99.9207 54.1639 99.6487 54.4622C99.3767 54.7605 99.2401 55.1302 99.2401 55.5711C99.2401 56.0186 99.3741 56.3882 99.6423 56.68C99.9092 56.9745 100.254 57.121 100.677 57.121Z" fill="#585655"/>
<path d="M108.671 53.1406V56.0867C108.671 56.7294 108.497 57.2091 108.152 57.5259C107.808 57.8426 107.287 58.0017 106.591 58.0017C105.885 58.0017 105.359 57.8426 105.014 57.5259C104.668 57.2091 104.496 56.7294 104.496 56.0867V53.1406H105.523V55.9276C105.523 56.3173 105.611 56.6115 105.787 56.8089C105.962 57.0064 106.226 57.1045 106.575 57.1045C106.927 57.1045 107.193 57.0051 107.373 56.8076C107.553 56.6088 107.644 56.3159 107.644 55.9276V53.1406H108.671Z" fill="#585655"/>
<path d="M112.848 58.0017H111.662L110.398 55.7304V58.0017H109.369V53.1406H110.841C111.425 53.1406 111.864 53.2549 112.155 53.4849C112.445 53.7149 112.591 54.0592 112.591 54.5192C112.591 54.854 112.491 55.1384 112.292 55.3765C112.093 55.6133 111.836 55.7521 111.521 55.7916L112.848 58.0017ZM110.398 55.2132H110.553C110.969 55.2132 111.243 55.167 111.376 55.0758C111.51 54.9846 111.577 54.824 111.577 54.5954C111.577 54.3559 111.506 54.1871 111.362 54.0864C111.218 53.9857 110.948 53.9354 110.551 53.9354H110.396V55.2132H110.398Z" fill="#585655"/>
<path d="M115.627 58.0003L116.339 53.1406H117.386L118.287 56.0017C118.307 56.0616 118.326 56.1487 118.348 56.2643C118.371 56.3786 118.392 56.5106 118.411 56.6589C118.428 56.5078 118.448 56.3745 118.469 56.2562C118.49 56.1378 118.511 56.0507 118.529 55.9949L119.445 53.1406H120.477L121.193 58.0003H120.244L119.902 55.0698C119.877 54.8535 119.86 54.6889 119.851 54.5787C119.843 54.4685 119.838 54.3651 119.838 54.2698C119.838 54.2195 119.838 54.1814 119.839 54.1555C119.841 54.1297 119.842 54.1079 119.845 54.0875C119.813 54.278 119.782 54.4426 119.753 54.58C119.724 54.7188 119.698 54.8236 119.674 54.8943L118.685 58.0017H118.122L117.148 54.8943C117.139 54.8657 117.121 54.7855 117.092 54.6549C117.063 54.5242 117.024 54.3338 116.971 54.0835V54.2263C116.971 54.4521 116.952 54.7283 116.914 55.0562L116.911 55.0698L116.572 58.0003H115.627Z" fill="#585655"/>
<path d="M122.586 58.0017V53.1406H125.369V54.017H123.596V55.0159H125.369V55.8991H123.596V57.1171H125.369V58.0003H122.586V58.0017Z" fill="#585655"/>
<path d="M126.065 58.0017L127.636 53.1406H128.645L130.239 58.0017H129.234L128.899 56.9688H127.299L127.011 58.0017H126.065ZM128.693 56.1522L128.231 54.5818C128.218 54.5355 128.201 54.4552 128.18 54.3423C128.159 54.2293 128.137 54.0905 128.115 53.9272C128.091 54.0851 128.067 54.2252 128.045 54.3504C128.022 54.4756 128.005 54.5587 127.994 54.6008L127.548 56.1509H128.693V56.1522Z" fill="#585655"/>
<path d="M130.934 58.0017V53.1406H132.005V57.1185H133.717V58.0017H130.934Z" fill="#585655"/>
<path d="M68.3943 8L58.7601 12.9566L62.0882 13.6767L59.9578 23.5577C58.3638 22.4578 56.2985 21.8354 55.4321 21.6523C51.9577 20.9186 48.7422 21.5545 45.7855 23.5577C44.369 24.5203 43.165 25.7453 42.1661 27.2312C41.1609 28.7172 40.4783 30.3022 40.122 31.9725C39.3606 35.4766 39.9295 38.7566 41.8223 41.8214C43.8076 45.0631 46.8044 47.0997 50.8013 47.9448C54.7582 48.7824 58.3713 48.0363 61.6331 45.7114C64.3723 43.7726 66.1451 40.9244 66.9528 37.1729L71.5711 15.7529L74.5816 16.4334L68.3943 8ZM53.7505 38.9373C51.5039 38.9373 49.6824 37.1345 49.6824 34.9111C49.6824 32.6877 51.5039 30.885 53.7505 30.885C55.9972 30.885 57.8187 32.6877 57.8187 34.9111C57.8187 37.1345 55.9972 38.9373 53.7505 38.9373Z" fill="#585655"/>
<path d="M9.62989 24.6641C10.7626 24.6641 11.8666 24.8834 12.9394 25.3221C14.0122 25.7608 14.9528 26.382 15.7586 27.1847C17.404 28.8009 18.2274 30.7334 18.2274 32.9807C18.2274 34.0627 18.0066 35.119 17.565 36.152C17.1234 37.185 16.4996 38.093 15.6938 38.8736C14.0159 40.5119 11.9726 41.3305 9.56377 41.3305C7.1013 41.3305 5.01929 40.496 3.31901 38.8258C1.66239 37.1874 0.834076 35.2501 0.834076 33.0126C0.834076 31.8987 1.05987 30.8204 1.51269 29.7764C1.96552 28.7323 2.60048 27.8317 3.41756 27.0707C5.1403 25.4667 7.21108 24.6641 9.62989 24.6641ZM9.4989 30.6696C8.86644 30.6696 8.32755 30.889 7.88096 31.3277C7.41191 31.7884 7.17864 32.3398 7.17864 32.9819C7.17864 33.624 7.41316 34.1755 7.88096 34.6362C8.33877 35.0969 8.89514 35.3261 9.54881 35.3261C10.2137 35.3261 10.7688 35.0957 11.2167 34.6362C11.6632 34.1755 11.8865 33.6302 11.8865 32.9979C11.8865 32.3447 11.652 31.7933 11.1842 31.3436C10.7139 30.8939 10.1526 30.6696 9.4989 30.6696Z" fill="#585655"/>
<path d="M35.6206 41.3305H29.4185V32.4679C29.4185 31.7291 29.3134 31.2255 29.1034 30.9584C28.849 30.6263 28.4732 30.4609 27.9758 30.4609C27.4228 30.4609 27.0254 30.6533 26.7825 31.0392C26.6053 31.2966 26.5167 31.772 26.5167 32.4679V41.3305H20.3145V31.9692C20.3145 29.711 20.8954 27.9773 22.0559 26.7667C23.4049 25.3649 25.3778 24.6641 27.9758 24.6641C30.8055 24.6641 32.8846 25.4887 34.2109 27.1367C35.1499 28.3142 35.6206 29.9255 35.6206 31.9692V41.3305Z" fill="#585655"/>
<path d="M90.8048 25.3594H96.844V34.3838C96.844 35.7258 96.6715 36.8069 96.3277 37.626C95.7781 38.946 94.8798 39.9309 93.6303 40.5805C92.6729 41.0803 91.5577 41.3313 90.2885 41.3313C88.9108 41.3313 87.7476 41.0437 86.8012 40.4684C86.4463 40.2453 86.0261 39.8992 85.5419 39.4299C84.9713 39.8882 84.4871 40.2283 84.089 40.4525C83.0564 41.0376 81.8993 41.3313 80.6178 41.3313C78.5292 41.3313 76.8398 40.6658 75.5472 39.3348C74.4381 38.1952 73.8849 36.6838 73.8849 34.7982V25.3594H79.9241V33.8561C79.9241 34.9957 80.3332 35.5649 81.1514 35.5649C81.6566 35.5649 82.0127 35.3516 82.2173 34.9262C82.3035 34.7349 82.3467 34.346 82.3467 33.761V25.3594H88.3859V33.761C88.3859 34.964 88.7999 35.5661 89.6292 35.5661C90.1344 35.5661 90.4905 35.3321 90.6951 34.8628C90.7703 34.6922 90.8085 34.2827 90.8085 33.633V25.3594H90.8048Z" fill="#585655"/>
<path d="M116.325 41.4793H110.147V34.5111C110.147 33.5161 109.987 32.7883 109.668 32.3276C109.229 31.6855 108.568 31.3645 107.687 31.3645C107.071 31.3645 106.536 31.563 106.085 31.9588C105.59 32.3864 105.341 32.9378 105.341 33.6117C105.341 34.2758 105.567 34.8272 106.018 35.2658C106.458 35.6837 106.987 35.892 107.604 35.892C108.133 35.892 108.645 35.7854 109.14 35.5709V41.4793C108.578 41.8432 107.841 42.0258 106.927 42.0258C104.558 42.0258 102.572 41.0946 100.964 39.2321C99.6099 37.6699 98.9317 35.8503 98.9317 33.7734C98.9317 31.28 99.8393 29.2239 101.657 27.6078C103.342 26.1092 105.361 25.3594 107.719 25.3594C110.471 25.3594 112.69 26.3494 114.375 28.3295C115.675 29.8599 116.324 31.7762 116.324 34.0773V41.4793H116.325Z" fill="#585655"/>
<path d="M121.428 48.3296V43.1234C122.257 43.4656 122.982 43.6355 123.604 43.6355C125.589 43.6355 126.876 42.5403 127.466 40.3522C126.397 40.9719 125.349 41.2812 124.324 41.2812C122.807 41.2812 121.559 40.7287 120.578 39.6236C119.596 38.5186 119.106 37.1116 119.106 35.4026V25.3594H125.225V33.9455C125.225 34.8966 125.628 35.3709 126.436 35.3709C127.21 35.3709 127.598 34.8477 127.598 33.8013V25.3594H133.716V39.615C133.716 42.2738 132.952 44.4203 131.425 46.0547C129.603 47.9983 127.4 48.9701 124.815 48.9701C123.679 48.9701 122.552 48.7562 121.428 48.3296Z" fill="#585655"/>
<path d="M59.2744 28.2026C58.9692 27.9341 58.6436 27.6796 58.3078 27.4453L57.8829 28.1312C58.1954 28.3485 58.4976 28.5859 58.7809 28.8342L59.2744 28.2026Z" fill="white"/>
<path d="M56.4916 26.6778C55.8451 26.3767 55.1706 26.1688 54.485 26.0586L54.4044 26.8733C55.0398 26.9742 55.6667 27.1681 56.2679 27.4475L56.4916 26.6778Z" fill="white"/>
<path d="M48.8412 28.1008L48.4751 27.4453C47.8536 27.8818 47.2751 28.3986 46.754 28.9811L47.2413 29.5286C47.7259 28.9855 48.2653 28.5052 48.8412 28.1008Z" fill="white"/>
<path d="M46.754 42.5873C47.2803 43.168 47.8637 43.6807 48.4873 44.1106L48.8412 43.4413C48.2617 43.0424 47.7198 42.5666 47.2311 42.0273L46.754 42.5873Z" fill="white"/>
<path d="M50.2325 44.2525C50.8886 44.5399 51.5717 44.7282 52.2621 44.8107L52.3197 43.9404C51.6783 43.8644 51.0443 43.6911 50.4349 43.4219L50.2325 44.2525Z" fill="white"/>
<path d="M52.2499 26.913L52.3197 26.9049L52.2867 26.4777L52.1875 26.0586C51.5228 26.1512 50.8654 26.3461 50.2325 26.6336L50.4431 27.4475C51.0294 27.1778 51.6391 26.9991 52.2499 26.913Z" fill="white"/>
<path d="M44.6661 38.7813C44.8893 39.4335 45.1834 40.0586 45.5414 40.6419L46.0576 40.2875C45.7251 39.7461 45.4519 39.164 45.245 38.5586L44.6661 38.7813Z" fill="white"/>
<path d="M46.0576 30.5744L45.5306 30.2266C45.1754 30.8141 44.8849 31.4421 44.6661 32.0948L45.253 32.3099C45.4577 31.7052 45.7282 31.1213 46.0576 30.5744Z" fill="white"/>
<path d="M44.6076 35.3693C44.6076 35.2188 44.6113 35.067 44.6185 34.9152C44.6269 34.7621 44.6389 34.6103 44.6533 34.4597L44.0213 34.3906C44.0044 34.5523 43.9912 34.7152 43.9828 34.8794C43.9744 35.0435 43.9708 35.2064 43.9708 35.3681C43.9708 35.7359 43.9924 36.1086 44.0345 36.4739L44.6665 36.3974C44.6269 36.058 44.6076 35.7112 44.6076 35.3693Z" fill="white"/>
<path d="M62.5108 33.747L62.0606 35.7812L62.7397 35.9325L63.1898 33.8982L62.5108 33.747Z" fill="white"/>
<path d="M64.5948 21.9423L64.1446 23.9766L64.8237 24.1278L65.2738 22.0935L64.5948 21.9423Z" fill="white"/>
<path d="M63.2061 29.579L62.756 31.6133L63.435 31.7645L63.8851 29.7302L63.2061 29.579Z" fill="white"/>
<path d="M63.9014 26.1064L63.4513 28.1406L64.1303 28.2918L64.5804 26.2576L63.9014 26.1064Z" fill="white"/>
<path d="M54.4044 44.0324L54.496 44.8107C55.1791 44.6904 55.8512 44.4676 56.4916 44.1482L56.2459 43.4219C55.6545 43.716 55.0349 43.9225 54.4044 44.0324Z" fill="white"/>
<path d="M60.6661 39.6404L61.2577 39.9466C61.5954 39.3416 61.8646 38.6988 62.0576 38.0377L61.4101 37.8633C61.2311 38.4792 60.981 39.0769 60.6661 39.6404Z" fill="white"/>
<path d="M57.8829 42.8239L58.3001 43.4231C58.9091 42.9625 59.4711 42.4249 59.9701 41.8257L59.4335 41.3398C58.9708 41.8971 58.449 42.3955 57.8829 42.8239Z" fill="white"/>
<path d="M65.9923 17.7715L65.5372 19.8047L66.2166 19.9541L66.6718 17.9209L65.9923 17.7715Z" fill="white"/>
<path d="M66.6876 14.295L66.2325 16.3281L66.912 16.4775L67.3671 14.4444L66.6876 14.295Z" fill="white"/>
<path d="M67.3847 10.8262L66.9298 12.8594L67.6092 13.0087L68.0641 10.9755L67.3847 10.8262Z" fill="white"/>
</g>
<defs>
<clipPath id="clip0_1115_6379">
<rect width="134" height="50" fill="white" transform="translate(0 8)"/>
</clipPath>
</defs>
</svg>
