<svg width="120" height="32" viewBox="0 0 120 32" fill="none" xmlns="http://www.w3.org/2000/svg">
<path d="M1.4101 17.7599L0.9964 17.9534C0.959426 17.9707 0.959555 18.022 0.996659 18.0391L2.06918 18.5345C2.08275 18.5408 2.09865 18.5406 2.11197 18.5339L2.5607 18.311C2.59742 18.2929 2.59574 18.241 2.55786 18.2252L1.45044 17.7592C1.43751 17.7538 1.42277 17.754 1.4101 17.7599Z" fill="#1A1A1A"/>
<path d="M7.17335 20.1909L6.60064 20.5482C6.56832 20.5683 6.57142 20.6152 6.60594 20.6311L9.29745 21.8744C9.31361 21.8818 9.33274 21.88 9.34722 21.8696L9.96725 21.4214C9.99738 21.3997 9.99195 21.3542 9.95756 21.3397L7.21886 20.1873C7.20399 20.1811 7.18693 20.1825 7.17335 20.1909Z" fill="#1A1A1A"/>
<path d="M3.73099 18.7386L3.24438 18.9938C3.20922 19.0122 3.21051 19.0618 3.24658 19.0784L4.87643 19.8314C4.89104 19.8381 4.90797 19.8373 4.92193 19.8294L5.45212 19.5253C5.48638 19.5057 5.48327 19.4562 5.44669 19.4409L3.77327 18.7368C3.7597 18.731 3.74405 18.7317 3.73099 18.7386Z" fill="#1A1A1A"/>
<path d="M12.821 22.5763L12.1653 23.128C12.1387 23.1503 12.1445 23.1921 12.1763 23.2068L17.2997 25.5735C17.3196 25.5827 17.3433 25.5778 17.3575 25.5614L18.022 24.8026C18.0432 24.7783 18.0343 24.7408 18.0043 24.7282L12.8721 22.5686C12.855 22.5614 12.8351 22.5644 12.821 22.5763Z" fill="#1A1A1A"/>
<path d="M0.0390625 17.1672C0.0504393 17.317 0.0642724 17.4671 0.0800447 17.6174L0.155545 17.6523L0.656381 17.427L0.0390625 17.1672Z" fill="#1A1A1A"/>
<path d="M23.2192 28.3055L25.3152 29.2737C25.3935 29.3099 25.4863 29.3035 25.5582 29.2562C25.8522 29.0623 26.1391 28.8597 26.4186 28.6486C26.5643 28.5385 26.5325 28.3143 26.3632 28.243L23.8641 27.1915C23.8413 27.1819 23.8148 27.1905 23.8026 27.2114L23.1979 28.239C23.1837 28.2631 23.1936 28.2937 23.2192 28.3055Z" fill="#1A1A1A"/>
<path d="M18.2597 31.8952C18.4798 31.8706 18.6985 31.8416 18.9155 31.8086C19.1363 31.7749 19.1976 31.4921 19.0099 31.3736L0.433594 19.6425C2.29395 27.4498 9.89919 32.8267 18.2597 31.8952Z" fill="url(#paint0_linear_3164_611)"/>
<path d="M0.011506 15.9997H0C0 16.0213 0.000904965 16.043 0.000904965 16.0646L29.6251 25.4453C29.6452 25.4186 29.6651 25.3918 29.6849 25.365C29.6994 25.3456 29.7114 25.3255 29.7255 25.306C32.545 21.4063 29.633 15.9997 24.7201 15.9997H0.011506Z" fill="url(#paint1_linear_3164_611)"/>
<path d="M4.53368 4.96797C2.85212 6.69049 1.569 8.77015 0.804688 11.0594L16.397 12.2461L31.9937 11.0594C31.2226 8.73762 29.9296 6.66993 28.2634 4.96797L16.3973 4.01874L4.53368 4.96797Z" fill="url(#paint2_linear_3164_611)"/>
<path d="M0.803236 11.0522C0.280035 12.6193 -0.00205721 14.2833 1.12951e-05 15.9985H24.7202C29.633 15.9985 32.545 21.405 29.7255 25.3047C31.6681 22.6574 32.7956 19.4294 32.7914 15.9985C32.7907 15.3987 32.759 14.7933 32.6876 14.1831C32.5605 13.0986 32.3243 12.0521 31.9922 11.0522H0.803236Z" fill="url(#paint3_linear_3164_611)"/>
<path d="M14.5298 0.106494C10.5584 0.549011 7.08375 2.34241 4.52734 4.96094H28.2571C25.2418 1.8811 21.0024 0.00195122 16.4101 0.00182533C15.7889 0.00169897 15.1618 0.0361252 14.5298 0.106494Z" fill="url(#paint4_linear_3164_611)"/>
<path d="M49.985 10.1525C48.6074 10.1525 47.7019 10.7862 47.4855 11.9956L46.7966 15.797C46.58 17.0066 47.2493 17.6402 48.6272 17.6402C49.985 17.6402 50.8905 17.0066 51.1069 15.797L51.7959 11.9956C52.0124 10.7862 51.3431 10.1525 49.985 10.1525ZM50.5165 6.79268C54.3939 6.79268 56.2049 9.0774 55.6143 12.3989L55.0041 15.8739C54.3939 19.1761 51.9731 21 48.0759 21C44.1988 21 42.3878 18.7729 42.9586 15.4516L43.5886 11.9765C44.179 8.6741 46.6196 6.79268 50.5165 6.79268Z" fill="#1A1A1A"/>
<path d="M68.8992 7.8859L66.7147 19.9045C66.6161 20.4997 66.3602 20.7109 65.7303 20.7109H63.5652C63.152 20.7109 62.9748 20.5957 62.8371 20.3269L60.6523 15.7768C60.0423 14.4904 59.8453 13.5496 59.6289 11.8218H59.4713C59.5698 13.6648 59.6091 14.644 59.2353 16.7751L58.6644 19.9045C58.5464 20.4997 58.3102 20.7109 57.6802 20.7109H55.6137C54.9839 20.7109 54.8067 20.4997 54.925 19.9045L57.0898 7.8859C57.2081 7.29067 57.4443 7.07944 58.074 7.07944H60.3178C60.7508 7.07944 60.9474 7.1947 61.0855 7.46356L63.4078 12.3785C63.9785 13.5689 64.1558 14.6056 64.4312 15.8919H64.5887C64.333 13.9144 64.2345 12.9929 64.5887 11.0346L65.1597 7.8859C65.2579 7.29067 65.4941 7.07944 66.1242 7.07944H68.1908C68.8205 7.07944 68.9978 7.29067 68.8992 7.8859Z" fill="#1A1A1A"/>
<path d="M70.9138 7.09506C70.2842 7.09506 70.0478 7.3063 69.9296 7.9014L67.7649 19.9201C67.6464 20.5153 67.8238 20.7266 68.4534 20.7266H73.2954C77.1923 20.7266 79.6134 18.9602 80.2236 15.6387L80.7353 12.7589C81.3452 9.43729 79.5936 7.09506 75.6967 7.09506H70.9138ZM73.3741 10.455H74.9683C76.5626 10.455 77.1334 11.1655 76.8776 12.5285L76.3853 15.2932C76.1296 16.6564 75.3226 17.3666 73.7283 17.3666H72.1144L73.3741 10.455Z" fill="url(#paint5_linear_3164_611)"/>
<path d="M99.3561 7.87442L94.16 20.0467C93.9238 20.6035 93.5892 20.7188 93.0183 20.7188H90.5777C90.0267 20.7188 89.7118 20.5843 89.6725 20.0852L89.4363 15.6117C89.3969 14.4022 89.4953 13.2503 89.692 12.1559H89.515C89.2788 13.2503 88.9639 14.3637 88.4719 15.6117L86.6219 20.0467C86.3657 20.6035 86.0313 20.7188 85.4604 20.7188H83.0986C82.5476 20.7188 82.2326 20.6035 82.1931 20.0852L81.406 7.87442C81.3667 7.33682 81.465 7.08725 82.0752 7.08725H84.4567C85.1651 7.08725 85.4211 7.20251 85.4604 7.79775L85.4409 12.8279C85.4211 13.8263 85.1849 15.6885 85.0864 16.2261H85.2245C85.3424 15.6501 85.7951 13.8646 86.2083 12.8279L88.3342 7.79775C88.5899 7.18334 88.9441 7.08725 89.5543 7.08725H91.6605C92.2901 7.08725 92.6051 7.20251 92.6443 7.79775L92.9201 12.8279C92.979 13.9222 92.7824 15.6501 92.7036 16.2261H92.8608C92.9594 15.6885 93.412 13.8838 93.7468 12.8279L95.4983 7.79775C95.7149 7.20251 96.0493 7.08725 96.7382 7.08725H98.9624C99.5726 7.08725 99.5923 7.33682 99.3561 7.87442Z" fill="#1A1A1A"/>
<path d="M103.409 10.5816H103.232C103.232 10.5816 102.976 11.964 102.346 13.2504L101.224 15.5159H103.665L103.35 13.2695C103.193 11.964 103.409 10.5816 103.409 10.5816ZM107.582 20.7188H105.535C104.531 20.7188 104.275 20.5076 104.216 19.9124L104.019 18.5301H99.7481L99.0592 19.9124C98.7639 20.5076 98.4687 20.7188 97.4848 20.7188H95.3197C94.7095 20.7188 94.6506 20.45 94.9457 19.9317L101.677 7.75941C101.972 7.20264 102.248 7.08737 102.819 7.08737H105.043C105.613 7.08737 105.869 7.22181 105.968 7.72107L108.31 19.9317C108.408 20.45 108.192 20.7188 107.582 20.7188Z" fill="#1A1A1A"/>
<path d="M119.761 7.89371L113.857 15.4389L113.069 19.9123C112.951 20.5075 112.695 20.7188 112.085 20.7188H109.841C109.231 20.7188 109.054 20.5075 109.172 19.9123L109.959 15.4389L106.81 7.89371C106.613 7.45208 106.751 7.08725 107.361 7.08725H109.644C110.628 7.08725 110.904 7.12571 111.16 7.79775L112.557 11.7143L115.451 7.79775C115.923 7.12571 116.218 7.08725 117.183 7.08725H119.486C120.096 7.08725 120.115 7.45208 119.761 7.89371Z" fill="#1A1A1A"/>
<path d="M44.7654 21.9472C45.3781 21.9472 45.6778 22.1582 45.8241 22.6197C45.8475 22.6902 45.8155 22.7429 45.7332 22.7735L45.529 22.8571C45.437 22.8922 45.4116 22.8834 45.3861 22.8C45.2788 22.4966 45.0879 22.3561 44.6915 22.3561C44.1914 22.3561 43.9089 22.5231 43.8493 22.8525C43.8072 23.0856 43.9299 23.2042 44.1433 23.2701C44.3004 23.3228 44.4107 23.336 44.623 23.3579C44.8742 23.3888 45.0197 23.4062 45.2253 23.4898C45.33 23.5338 45.4062 23.5864 45.4633 23.6438C45.5725 23.7623 45.6434 23.9688 45.5934 24.2456C45.486 24.8391 44.9705 25.1992 44.1729 25.1992C43.5108 25.1992 43.1896 24.9576 43.079 24.4479C43.0625 24.3643 43.0868 24.3292 43.1825 24.2984L43.3793 24.2325C43.4612 24.2016 43.4987 24.2194 43.5197 24.3027C43.6088 24.6324 43.849 24.7993 44.2453 24.7993C44.7859 24.7993 45.0889 24.6192 45.1548 24.2544C45.1874 24.0742 45.1285 23.9512 44.9745 23.881C44.8196 23.8152 44.693 23.793 44.4462 23.7623C44.216 23.7403 44.111 23.7227 43.9089 23.67C43.8047 23.6481 43.7255 23.6129 43.6651 23.5733C43.4777 23.4633 43.3139 23.2481 43.3985 22.8789C43.5003 22.3165 44.004 21.9472 44.7654 21.9472Z" fill="#1A1A1A"/>
<path d="M48.7443 23.0723C48.8292 22.6021 48.5787 22.3427 48.0517 22.3427C47.5247 22.3427 47.1804 22.6021 47.0953 23.0723L46.9142 24.0743C46.8291 24.5446 47.0798 24.8037 47.6069 24.8037C48.1338 24.8037 48.4781 24.5446 48.5632 24.0743L48.7443 23.0723ZM46.6583 23.0723C46.7854 22.3692 47.3168 21.9472 48.1232 21.9472C48.9296 21.9472 49.3084 22.3692 49.1813 23.0723L49.0002 24.0743C48.8731 24.7775 48.3417 25.1992 47.5354 25.1992C46.7289 25.1992 46.3501 24.7775 46.4772 24.0743L46.6583 23.0723Z" fill="#1A1A1A"/>
<path d="M50.7103 22.0167C50.8005 22.0167 50.8265 22.0473 50.8114 22.1309L50.3395 24.7411H51.7541C51.8442 24.7411 51.8702 24.772 51.8551 24.8554L51.8249 25.0225C51.8098 25.1058 51.7727 25.1367 51.6826 25.1367H49.9482C49.8626 25.1367 49.8366 25.1058 49.8517 25.0225L50.3744 22.1309C50.3895 22.0473 50.4265 22.0167 50.5122 22.0167H50.7103Z" fill="#1A1A1A"/>
<path d="M53.1718 24.0698C53.0884 24.5312 53.3139 24.8036 53.8364 24.8036C54.3591 24.8036 54.6832 24.5312 54.7666 24.0698L55.1176 22.1276C55.1327 22.0438 55.1698 22.0133 55.2599 22.0133H55.4581C55.5437 22.0133 55.5697 22.0438 55.5546 22.1276L55.2043 24.0654C55.0771 24.7687 54.5714 25.1992 53.7649 25.1992C52.9677 25.1992 52.6129 24.7687 52.7401 24.0654L53.0903 22.1276C53.1055 22.0438 53.138 22.0133 53.2282 22.0133H53.4263C53.5165 22.0133 53.538 22.0438 53.5229 22.1276L53.1718 24.0698Z" fill="#1A1A1A"/>
<path d="M58.6515 22.0167C58.7371 22.0167 58.7631 22.0473 58.748 22.1309L58.7179 22.2979C58.7027 22.3812 58.6656 22.4121 58.58 22.4121H57.7286L57.2568 25.0225C57.2417 25.1058 57.2091 25.1367 57.119 25.1367H56.9208C56.8307 25.1367 56.8093 25.1058 56.8243 25.0225L57.2961 22.4121H56.4447C56.3546 22.4121 56.3331 22.3812 56.3481 22.2979L56.3784 22.1309C56.3935 22.0473 56.4261 22.0167 56.5161 22.0167H58.6515Z" fill="#1A1A1A"/>
<path d="M59.5892 22.1309C59.6044 22.0473 59.6415 22.0167 59.7271 22.0167H59.9253C60.0154 22.0167 60.0413 22.0473 60.0262 22.1309L59.5035 25.0225C59.4884 25.1058 59.4514 25.1367 59.3613 25.1367H59.163C59.0774 25.1367 59.0514 25.1058 59.0666 25.0225L59.5892 22.1309Z" fill="#1A1A1A"/>
<path d="M62.9631 23.0723C63.048 22.6021 62.7976 22.3427 62.2705 22.3427C61.7434 22.3427 61.399 22.6021 61.3141 23.0723L61.1329 24.0743C61.0479 24.5446 61.2986 24.8037 61.8256 24.8037C62.3527 24.8037 62.6969 24.5446 62.7819 24.0743L62.9631 23.0723ZM60.8771 23.0723C61.0042 22.3692 61.5355 21.9472 62.342 21.9472C63.1484 21.9472 63.527 22.3692 63.3999 23.0723L63.2188 24.0743C63.0917 24.7775 62.5606 25.1992 61.7541 25.1992C60.9477 25.1992 60.5689 24.7775 60.696 24.0743L60.8771 23.0723Z" fill="#1A1A1A"/>
<path d="M66.9518 22.0167C67.0375 22.0167 67.0633 22.0473 67.0482 22.1309L66.5255 25.0225C66.5105 25.1058 66.4736 25.1367 66.3878 25.1367H66.1897C66.1356 25.1367 66.0981 25.1192 66.0784 25.0796L65.1241 23.2559C65.071 23.1504 65.0191 23.0141 64.9691 22.8427L64.8815 22.5791H64.859C64.8582 22.5835 64.8534 22.6844 64.8446 22.8823C64.8314 23.0799 64.814 23.2513 64.7877 23.3964L64.4939 25.0225C64.4788 25.1058 64.4418 25.1367 64.3515 25.1367H64.1669C64.0812 25.1367 64.0554 25.1058 64.0705 25.0225L64.5932 22.1309C64.6082 22.0473 64.6451 22.0167 64.7309 22.0167H64.929C64.9831 22.0167 65.0206 22.0342 65.0358 22.0738L65.9776 23.8665C66.0374 23.9855 66.0975 24.126 66.1523 24.2973C66.2067 24.4687 66.2352 24.561 66.238 24.5699H66.2605C66.2621 24.561 66.2677 24.4556 66.2818 24.2533C66.2949 24.0557 66.314 23.8755 66.3418 23.7216L66.6293 22.1309C66.6445 22.0473 66.6772 22.0167 66.7672 22.0167H66.9518Z" fill="#1A1A1A"/>
<path d="M69.2968 21.9472C69.9093 21.9472 70.2091 22.1582 70.3554 22.6197C70.3788 22.6902 70.3466 22.7429 70.2646 22.7735L70.0603 22.8571C69.9682 22.8922 69.9429 22.8834 69.9174 22.8C69.81 22.4966 69.6193 22.3561 69.2228 22.3561C68.7227 22.3561 68.4403 22.5231 68.3808 22.8525C68.3386 23.0856 68.4612 23.2042 68.6746 23.2701C68.8317 23.3228 68.942 23.336 69.1544 23.3579C69.4055 23.3888 69.551 23.4062 69.7567 23.4898C69.8615 23.5338 69.9375 23.5864 69.9946 23.6438C70.1037 23.7623 70.1746 23.9688 70.1245 24.2456C70.0174 24.8391 69.5019 25.1992 68.7044 25.1992C68.0421 25.1992 67.7209 24.9576 67.6101 24.4479C67.5939 24.3643 67.6182 24.3292 67.714 24.2984L67.9106 24.2325C67.9926 24.2016 68.0301 24.2194 68.0511 24.3027C68.1401 24.6324 68.3803 24.7993 68.7767 24.7993C69.3172 24.7993 69.6202 24.6192 69.6861 24.2544C69.7187 24.0742 69.6596 23.9512 69.5057 23.881C69.351 23.8152 69.2242 23.793 68.9776 23.7623C68.7473 23.7403 68.6423 23.7227 68.4401 23.67C68.3359 23.6481 68.2568 23.6129 68.1964 23.5733C68.009 23.4633 67.8453 23.2481 67.9299 22.8789C68.0316 22.3165 68.5354 21.9472 69.2968 21.9472Z" fill="#1A1A1A"/>
<path d="M73.9377 23.6075C74.3297 23.6075 74.5992 23.3877 74.6667 23.0142C74.7342 22.6408 74.5457 22.4123 74.1537 22.4123H73.3112L73.0952 23.6075H73.9377ZM74.2658 22.0168C74.9011 22.0168 75.2337 22.3945 75.1218 23.0142C75.0105 23.6295 74.551 24.003 73.9068 24.003H73.0237L72.8393 25.0226C72.8243 25.1059 72.7873 25.1367 72.6971 25.1367H72.4989C72.4132 25.1367 72.3875 25.1059 72.4025 25.0226L72.9252 22.131C72.9403 22.0474 72.9773 22.0168 73.063 22.0168H74.2658Z" fill="#1A1A1A"/>
<path d="M77.4941 22.4123H76.5885L76.394 23.4889H77.2996C77.6554 23.4889 77.894 23.291 77.9552 22.9526C78.0179 22.6055 77.8501 22.4123 77.4941 22.4123ZM77.6062 22.0168C78.2144 22.0168 78.5174 22.3595 78.4102 22.9526C78.3252 23.423 78.0254 23.7349 77.5897 23.8273C77.663 23.8712 77.7244 23.9547 77.7705 24.0732L78.0998 25.0182C78.1259 25.0971 78.1009 25.1367 78.0154 25.1367H77.8171C77.6685 25.1367 77.6265 25.1193 77.6011 25.0357L77.3365 24.2315C77.2536 23.9678 77.1333 23.8845 76.8047 23.8845H76.3225L76.1167 25.0226C76.1017 25.1059 76.0647 25.1367 75.9744 25.1367H75.7764C75.6905 25.1367 75.6648 25.1059 75.6798 25.0226L76.2025 22.131C76.2176 22.0474 76.2546 22.0168 76.3403 22.0168H77.6062Z" fill="#1A1A1A"/>
<path d="M79.5658 22.1309C79.5809 22.0473 79.6179 22.0167 79.7036 22.0167H79.9016C79.9919 22.0167 80.0177 22.0473 80.0026 22.1309L79.4799 25.0225C79.4649 25.1058 79.428 25.1367 79.3377 25.1367H79.1395C79.0538 25.1367 79.0281 25.1058 79.0431 25.0225L79.5658 22.1309Z" fill="#1A1A1A"/>
<path d="M83.5599 22.0167C83.6453 22.0167 83.6609 22.056 83.6157 22.1309L81.9635 25.04C81.9291 25.1058 81.8785 25.1367 81.8021 25.1367H81.6173C81.5406 25.1367 81.4968 25.1058 81.4853 25.0443L80.8857 22.1309C80.8721 22.056 80.9064 22.0167 80.9874 22.0167H81.1631C81.3074 22.0167 81.3401 22.0342 81.3567 22.1175L81.7591 24.2271C81.7854 24.3809 81.7949 24.627 81.7987 24.6313H81.8168C81.8229 24.6226 81.9206 24.3809 82.0018 24.2314L83.1586 22.1175C83.2054 22.0342 83.2488 22.0167 83.3931 22.0167H83.5599Z" fill="#1A1A1A"/>
<path d="M85.2701 22.8164C85.2441 22.6626 85.2423 22.5221 85.2638 22.4032H85.2369L85.2212 22.4647C85.203 22.5395 85.1483 22.6935 85.0863 22.812L84.4215 23.9721H85.5117L85.2701 22.8164ZM86.1959 25.0225C86.2095 25.0971 86.1752 25.1367 86.0941 25.1367H85.9184C85.7744 25.1367 85.7371 25.1192 85.7205 25.0356L85.5707 24.3192H84.2371L83.8284 25.0356C83.7818 25.1192 83.738 25.1367 83.594 25.1367H83.4362C83.3552 25.1367 83.3353 25.0971 83.3759 25.0225L85.0746 22.1044C85.1089 22.0386 85.1641 22.0077 85.2406 22.0077H85.421C85.4975 22.0077 85.5416 22.0386 85.5528 22.1L86.1959 25.0225Z" fill="#1A1A1A"/>
<path d="M89.1632 22.0167C89.249 22.0167 89.2748 22.0473 89.2597 22.1309L89.2296 22.2979C89.2144 22.3812 89.1775 22.4121 89.0917 22.4121H88.2402L87.7684 25.0225C87.7533 25.1058 87.7209 25.1367 87.6306 25.1367H87.4326C87.3423 25.1367 87.321 25.1058 87.336 25.0225L87.8079 22.4121H86.9564C86.8664 22.4121 86.8448 22.3812 86.8598 22.2979L86.8901 22.1309C86.9052 22.0473 86.9379 22.0167 87.0278 22.0167H89.1632Z" fill="#1A1A1A"/>
<path d="M92.0575 22.0167C92.1478 22.0167 92.1691 22.0473 92.154 22.1309L92.1238 22.2979C92.1087 22.3812 92.0763 22.4121 91.986 22.4121H90.4948L90.324 23.3568H91.6081C91.6981 23.3568 91.7197 23.3877 91.7038 23.4755L91.6745 23.638C91.6586 23.7261 91.6266 23.7523 91.5366 23.7523H90.2526L90.0738 24.7411H91.6191C91.7094 24.7411 91.7307 24.772 91.7156 24.8554L91.6854 25.0225C91.6703 25.1058 91.6379 25.1367 91.5476 25.1367H89.6826C89.5969 25.1367 89.5711 25.1058 89.586 25.0225L90.1087 22.1309C90.1239 22.0473 90.1608 22.0167 90.2465 22.0167H92.0575Z" fill="#1A1A1A"/>
<path d="M94.9642 22.0167C95.0544 22.0167 95.0803 22.0473 95.0652 22.1309L94.5933 24.7411H96.008C96.098 24.7411 96.1241 24.772 96.109 24.8554L96.0789 25.0225C96.0637 25.1058 96.0265 25.1367 95.9365 25.1367H94.2021C94.1164 25.1367 94.0905 25.1058 94.1056 25.0225L94.6283 22.1309C94.6434 22.0473 94.6803 22.0167 94.7661 22.0167H94.9642Z" fill="#1A1A1A"/>
<path d="M97.4447 22.1309C97.4599 22.0473 97.4968 22.0167 97.5825 22.0167H97.7806C97.8708 22.0167 97.8967 22.0473 97.8816 22.1309L97.3589 25.0225C97.3439 25.1058 97.3068 25.1367 97.2167 25.1367H97.0185C96.9328 25.1367 96.9069 25.1058 96.922 25.0225L97.4447 22.1309Z" fill="#1A1A1A"/>
<path d="M101.859 22.0167C101.944 22.0167 101.97 22.0473 101.955 22.1309L101.433 25.0225C101.418 25.1058 101.381 25.1367 101.295 25.1367H101.115C101.024 25.1367 101.003 25.1058 101.018 25.0225L101.305 23.436C101.349 23.1941 101.426 22.9176 101.535 22.6097H101.513C101.386 22.8383 101.22 23.0845 101.019 23.348L100.267 24.3413C100.225 24.3985 100.171 24.4247 100.112 24.4247H99.9999C99.9413 24.4247 99.8967 24.3985 99.8754 24.3413L99.4754 23.3393C99.3845 23.1196 99.3156 22.8779 99.2693 22.6097H99.2424C99.2416 22.8867 99.2143 23.1635 99.1651 23.436L98.8782 25.0225C98.8632 25.1058 98.8305 25.1367 98.7405 25.1367H98.5692C98.4835 25.1367 98.4578 25.1058 98.4728 25.0225L98.9955 22.1309C99.0106 22.0473 99.0476 22.0167 99.1333 22.0167H99.291C99.3855 22.0167 99.4139 22.0342 99.4416 22.1044L100.153 23.9019L101.509 22.1088C101.563 22.0342 101.593 22.0167 101.688 22.0167H101.859Z" fill="#1A1A1A"/>
<path d="M103.078 22.1309C103.093 22.0473 103.13 22.0167 103.215 22.0167H103.413C103.504 22.0167 103.53 22.0473 103.514 22.1309L102.992 25.0225C102.977 25.1058 102.94 25.1367 102.849 25.1367H102.651C102.566 25.1367 102.54 25.1058 102.555 25.0225L103.078 22.1309Z" fill="#1A1A1A"/>
<path d="M106.628 22.0167C106.714 22.0167 106.74 22.0473 106.725 22.1309L106.694 22.2979C106.679 22.3812 106.642 22.4121 106.557 22.4121H105.705L105.233 25.0225C105.218 25.1058 105.186 25.1367 105.095 25.1367H104.897C104.807 25.1367 104.786 25.1058 104.801 25.0225L105.273 22.4121H104.421C104.331 22.4121 104.31 22.3812 104.325 22.2979L104.355 22.1309C104.37 22.0473 104.403 22.0167 104.493 22.0167H106.628Z" fill="#1A1A1A"/>
<path d="M109.518 22.0167C109.609 22.0167 109.63 22.0473 109.615 22.1309L109.585 22.2979C109.57 22.3812 109.537 22.4121 109.447 22.4121H107.956L107.785 23.3568H109.069C109.159 23.3568 109.181 23.3877 109.165 23.4755L109.135 23.638C109.119 23.7261 109.088 23.7523 108.998 23.7523H107.714L107.535 24.7411H109.08C109.17 24.7411 109.192 24.772 109.177 24.8554L109.146 25.0225C109.131 25.1058 109.099 25.1367 109.009 25.1367H107.144C107.058 25.1367 107.032 25.1058 107.047 25.0225L107.57 22.1309C107.585 22.0473 107.622 22.0167 107.707 22.0167H109.518Z" fill="#1A1A1A"/>
<path d="M112.397 23.1723C112.485 22.6844 112.224 22.4121 111.665 22.4121H111.003L110.582 24.7412H111.244C111.803 24.7412 112.163 24.4687 112.251 23.9808L112.397 23.1723ZM111.736 22.0167C112.565 22.0167 112.963 22.4559 112.833 23.1767L112.689 23.9764C112.558 24.6972 112.001 25.1367 111.172 25.1367H110.19C110.105 25.1367 110.079 25.1058 110.094 25.0225L110.617 22.1309C110.632 22.0473 110.669 22.0167 110.754 22.0167H111.736Z" fill="#1A1A1A"/>
<defs>
<linearGradient id="paint0_linear_3164_611" x1="-0.262" y1="31.4175" x2="23.553" y2="17.1058" gradientUnits="userSpaceOnUse">
<stop stop-color="#9BD623"/>
<stop offset="0.00537634" stop-color="#9BD623"/>
<stop offset="0.00736162" stop-color="#9BD623"/>
<stop offset="1" stop-color="#1DC735"/>
</linearGradient>
<linearGradient id="paint1_linear_3164_611" x1="-1.3123" y1="29.9431" x2="23.0646" y2="15.2938" gradientUnits="userSpaceOnUse">
<stop stop-color="#9BD623"/>
<stop offset="0.00537634" stop-color="#9BD623"/>
<stop offset="0.00736162" stop-color="#9BD623"/>
<stop offset="1" stop-color="#1DC735"/>
</linearGradient>
<linearGradient id="paint2_linear_3164_611" x1="-1.0382" y1="8.13236" x2="42.2535" y2="8.13236" gradientUnits="userSpaceOnUse">
<stop stop-color="#FF8500"/>
<stop offset="0.00199601" stop-color="#FF8500"/>
<stop offset="1" stop-color="#E8001C"/>
</linearGradient>
<linearGradient id="paint3_linear_3164_611" x1="0.58153" y1="18.1784" x2="69.872" y2="18.1784" gradientUnits="userSpaceOnUse">
<stop stop-color="#FF8500"/>
<stop offset="0.00199601" stop-color="#FF8500"/>
<stop offset="1" stop-color="#E8001C"/>
</linearGradient>
<linearGradient id="paint4_linear_3164_611" x1="7.86942" y1="2.48138" x2="43.6092" y2="2.48138" gradientUnits="userSpaceOnUse">
<stop stop-color="#FF8500"/>
<stop offset="0.00199601" stop-color="#FF8500"/>
<stop offset="1" stop-color="#E8001C"/>
</linearGradient>
<linearGradient id="paint5_linear_3164_611" x1="67.8636" y1="8.74704" x2="80.6687" y2="21.8742" gradientUnits="userSpaceOnUse">
<stop stop-color="#FF8500"/>
<stop offset="0.00199601" stop-color="#FF8500"/>
<stop offset="1" stop-color="#E8001C"/>
</linearGradient>
</defs>
</svg>
