<svg width="154" height="42" viewBox="0 0 154 42" fill="none" xmlns="http://www.w3.org/2000/svg">
<path d="M1.81121 23.2991L1.2815 23.553C1.23415 23.5757 1.23432 23.6431 1.28183 23.6656L2.65511 24.3158C2.67249 24.3241 2.69285 24.3237 2.7099 24.315L3.28448 24.0225C3.33149 23.9986 3.32934 23.9306 3.28083 23.9097L1.86286 23.2981C1.8463 23.291 1.82743 23.2913 1.81121 23.2991Z" fill="white"/>
<path d="M9.18793 26.4928L8.45461 26.9618C8.41322 26.9881 8.4172 27.0497 8.46139 27.0705L11.9077 28.7025C11.9284 28.7123 11.9529 28.71 11.9714 28.6962L12.7653 28.1079C12.8039 28.0795 12.7969 28.0197 12.7529 28.0007L9.2462 26.488C9.22716 26.4799 9.20531 26.4817 9.18793 26.4928Z" fill="white"/>
<path d="M4.78089 24.5883L4.15782 24.9234C4.11279 24.9475 4.11445 25.0126 4.16063 25.0345L6.24754 26.0229C6.26624 26.0316 6.28793 26.0306 6.3058 26.0202L6.98467 25.6211C7.02853 25.5953 7.02456 25.5304 6.97771 25.5102L4.83502 24.586C4.81764 24.5784 4.79761 24.5794 4.78089 24.5883Z" fill="white"/>
<path d="M16.4217 29.6237L15.5821 30.3479C15.548 30.3772 15.5555 30.432 15.5962 30.4513L22.1564 33.5579C22.1819 33.57 22.2122 33.5636 22.2304 33.542L23.0812 32.546C23.1084 32.5141 23.097 32.4649 23.0586 32.4483L16.4871 29.6136C16.4653 29.6041 16.4398 29.6081 16.4217 29.6237Z" fill="white"/>
<path d="M0.0507812 22.5209C0.0653484 22.7176 0.0830607 22.9145 0.103256 23.1119L0.199929 23.1577L0.841213 22.8619L0.0507812 22.5209Z" fill="white"/>
<path d="M29.7328 37.1416L32.4165 38.4124C32.5168 38.4599 32.6356 38.4515 32.7277 38.3894C33.1041 38.135 33.4714 37.869 33.8293 37.5919C34.0159 37.4474 33.9751 37.153 33.7584 37.0595L30.5585 35.6793C30.5293 35.6667 30.4954 35.678 30.4797 35.7054L29.7055 37.0542C29.6873 37.0858 29.7 37.1261 29.7328 37.1416Z" fill="white"/>
<path d="M23.3778 41.8561C23.6597 41.8239 23.9396 41.7858 24.2175 41.7424C24.5002 41.6982 24.5787 41.3269 24.3384 41.1715L0.552734 25.7727C2.93479 36.0208 12.6727 43.0788 23.3778 41.8561Z" fill="white"/>
<path d="M0.0147326 20.9818H0C0 21.0101 0.00115874 21.0385 0.00115874 21.0669L37.9328 33.3804C37.9586 33.3453 37.9841 33.3102 38.0094 33.2749C38.028 33.2494 38.0434 33.2231 38.0614 33.1975C41.6716 28.0786 37.9429 20.9818 31.6524 20.9818H0.0147326Z" fill="white"/>
<path d="M5.80205 6.51823C3.64893 8.77928 2.00599 11.5091 1.02734 14.5141L20.9922 16.0718L40.9626 14.5141C39.9753 11.4664 38.3197 8.7523 36.1862 6.51823L20.9926 5.27225L5.80205 6.51823Z" fill="#AFAFAF"/>
<path d="M1.02849 14.4924C0.358564 16.5493 -0.0026341 18.7335 1.44625e-05 20.985H31.6524C37.9429 20.985 41.6716 28.0818 38.0614 33.2007C40.5487 29.7258 41.9924 25.4886 41.9871 20.985C41.9861 20.1977 41.9455 19.403 41.8542 18.6021C41.6914 17.1785 41.389 15.8049 40.9637 14.4924H1.02849Z" fill="#C8C8C8"/>
<path d="M18.6122 0.137153C13.5271 0.718017 9.07799 3.0721 5.80469 6.50928H36.1889C32.3281 2.46657 26.8999 -7.34329e-05 21.0197 -0.000238895C20.2243 -0.000404358 19.4213 0.0447845 18.6122 0.137153Z" fill="#C8C8C8"/>
<path d="M64 13.3368C62.2361 13.3368 61.0766 14.1686 60.7995 15.7561L59.9174 20.746C59.6401 22.3338 60.4971 23.1655 62.2614 23.1655C64 23.1655 65.1594 22.3338 65.4365 20.746L66.3187 15.7561C66.5959 14.1686 65.739 13.3368 64 13.3368ZM64.6805 8.92663C69.6453 8.92663 71.9641 11.9256 71.2079 16.2855L70.4266 20.847C69.6453 25.1815 66.5456 27.5757 61.5555 27.5757C56.5911 27.5757 54.2723 24.6523 55.0032 20.2926L55.8098 15.7311C56.5658 11.3962 59.6908 8.92663 64.6805 8.92663Z" fill="white"/>
<path d="M88.2144 10.3622L85.4172 26.1382C85.291 26.9195 84.9633 27.1968 84.1568 27.1968H81.3845C80.8555 27.1968 80.6285 27.0455 80.4523 26.6927L77.6547 20.72C76.8737 19.0314 76.6214 17.7965 76.3443 15.5285H76.1425C76.2687 17.9478 76.319 19.233 75.8404 22.0304L75.1094 26.1382C74.9583 26.9195 74.6559 27.1968 73.8492 27.1968H71.2031C70.3968 27.1968 70.1699 26.9195 70.3213 26.1382L73.0932 10.3622C73.2447 9.58083 73.5471 9.30356 74.3534 9.30356H77.2265C77.7808 9.30356 78.0326 9.45485 78.2094 9.80778L81.1829 16.2594C81.9138 17.8218 82.1407 19.1827 82.4933 20.8712H82.6951C82.3677 18.2754 82.2415 17.0658 82.6951 14.4952L83.4261 10.3622C83.5519 9.58083 83.8543 9.30356 84.6612 9.30356H87.3072C88.1136 9.30356 88.3405 9.58083 88.2144 10.3622Z" fill="white"/>
<path d="M90.7889 9.28403C89.9827 9.28403 89.6801 9.5613 89.5287 10.3425L86.7569 26.1186C86.6053 26.9 86.8324 27.1772 87.6386 27.1772H93.8384C98.8281 27.1772 101.928 24.8586 102.709 20.4987L103.365 16.7186C104.146 12.3585 101.903 9.28403 96.913 9.28403H90.7889ZM93.9392 13.6944H95.9804C98.0218 13.6944 98.7526 14.627 98.4252 16.4161L97.7948 20.0452C97.4674 21.8346 96.4341 22.7669 94.3927 22.7669H92.3262L93.9392 13.6944Z" fill="#959595"/>
<path d="M127.224 10.3173L120.571 26.2951C120.268 27.0259 119.84 27.1772 119.109 27.1772H115.984C115.278 27.1772 114.875 27.0008 114.825 26.3456L114.522 20.4736C114.472 18.8859 114.598 17.3739 114.85 15.9374H114.623C114.321 17.3739 113.918 18.8354 113.287 20.4736L110.919 26.2951C110.591 27.0259 110.163 27.1772 109.432 27.1772H106.407C105.702 27.1772 105.299 27.0259 105.248 26.3456L104.24 10.3173C104.19 9.61162 104.316 9.28403 105.097 9.28403H108.146C109.053 9.28403 109.381 9.43532 109.432 10.2167L109.407 16.8194C109.381 18.1299 109.079 20.5744 108.953 21.28H109.129C109.28 20.5239 109.86 18.1802 110.389 16.8194L113.111 10.2167C113.439 9.41016 113.892 9.28403 114.674 9.28403H117.37C118.176 9.28403 118.58 9.43532 118.63 10.2167L118.983 16.8194C119.059 18.2559 118.807 20.5239 118.706 21.28H118.907C119.033 20.5744 119.613 18.2054 120.042 16.8194L122.284 10.2167C122.562 9.43532 122.99 9.28403 123.872 9.28403H126.72C127.501 9.28403 127.526 9.61162 127.224 10.3173Z" fill="white"/>
<path d="M132.413 13.8708H132.186C132.186 13.8708 131.858 15.6854 131.052 17.3741L129.615 20.3478H132.74L132.337 17.3991C132.136 15.6854 132.413 13.8708 132.413 13.8708ZM137.755 27.1772H135.135C133.849 27.1772 133.522 26.9001 133.446 26.1188L133.194 24.3044H127.725L126.843 26.1188C126.465 26.9001 126.087 27.1772 124.827 27.1772H122.055C121.274 27.1772 121.198 26.8245 121.576 26.1441L130.195 10.1663C130.573 9.43549 130.926 9.28419 131.657 9.28419H134.505C135.235 9.28419 135.563 9.46065 135.689 10.116L138.688 26.1441C138.814 26.8245 138.537 27.1772 137.755 27.1772Z" fill="white"/>
<path d="M153.354 10.3426L145.793 20.2468L144.785 26.1186C144.634 26.9 144.306 27.1772 143.525 27.1772H140.652C139.871 27.1772 139.644 26.9 139.795 26.1186L140.803 20.2468L136.771 10.3426C136.519 9.76292 136.695 9.28403 137.477 9.28403H140.4C141.66 9.28403 142.013 9.33451 142.341 10.2167L144.13 15.3577L147.835 10.2167C148.44 9.33451 148.818 9.28403 150.053 9.28403H153.001C153.782 9.28403 153.807 9.76292 153.354 10.3426Z" fill="white"/>
<path d="M57.3276 28.7914C58.1121 28.7914 58.4958 29.0683 58.6832 29.674C58.7131 29.7666 58.6721 29.8358 58.5668 29.876L58.3052 29.9857C58.1875 30.0318 58.1549 30.0202 58.1223 29.9107C57.9849 29.5125 57.7404 29.3281 57.2329 29.3281C56.5926 29.3281 56.2309 29.5472 56.1546 29.9796C56.1006 30.2857 56.2577 30.4413 56.531 30.5279C56.7322 30.5971 56.8734 30.6143 57.1452 30.6431C57.4668 30.6836 57.6532 30.7065 57.9164 30.8162C58.0505 30.874 58.148 30.943 58.2211 31.0183C58.361 31.1739 58.4517 31.4449 58.3877 31.8083C58.2503 32.5873 57.5901 33.0601 56.5689 33.0601C55.7211 33.0601 55.3099 32.7429 55.1682 32.0738C55.1472 31.964 55.1783 31.918 55.3008 31.8776L55.5527 31.7911C55.6577 31.7505 55.7057 31.7738 55.7325 31.8833C55.8465 32.316 56.1541 32.5351 56.6616 32.5351C57.3537 32.5351 57.7418 32.2988 57.8262 31.8199C57.8679 31.5833 57.7924 31.4219 57.5953 31.3297C57.3969 31.2433 57.2349 31.2142 56.9189 31.1739C56.6241 31.145 56.4896 31.122 56.2309 31.0528C56.0975 31.024 55.996 30.9778 55.9187 30.9258C55.6787 30.7815 55.469 30.4989 55.5774 30.0144C55.7077 29.2761 56.3526 28.7914 57.3276 28.7914Z" fill="white"/>
<path d="M62.4199 30.2681C62.5287 29.651 62.2078 29.3105 61.5331 29.3105C60.8582 29.3105 60.4174 29.651 60.3085 30.2681L60.0766 31.5835C59.9677 32.2008 60.2886 32.5409 60.9635 32.5409C61.6382 32.5409 62.0791 32.2008 62.188 31.5835L62.4199 30.2681ZM59.749 30.2681C59.9117 29.3453 60.5921 28.7914 61.6247 28.7914C62.6571 28.7914 63.1421 29.3453 62.9794 30.2681L62.7475 31.5835C62.5848 32.5065 61.9044 33.0601 60.872 33.0601C59.8394 33.0601 59.3543 32.5065 59.5171 31.5835L59.749 30.2681Z" fill="white"/>
<path d="M64.9405 28.8747C65.056 28.8747 65.0893 28.9149 65.0699 29.0247L64.4657 32.4509H66.277C66.3924 32.4509 66.4256 32.4915 66.4063 32.6009L66.3677 32.8202C66.3483 32.9297 66.3008 32.9702 66.1855 32.9702H63.9646C63.855 32.9702 63.8218 32.9297 63.8411 32.8202L64.5104 29.0247C64.5298 28.9149 64.5771 28.8747 64.6869 28.8747H64.9405Z" fill="white"/>
<path d="M68.089 31.5775C67.9822 32.1832 68.2709 32.5408 68.94 32.5408C69.6093 32.5408 70.0243 32.1832 70.131 31.5775L70.5805 29.0281C70.5998 28.9182 70.6473 28.8781 70.7627 28.8781H71.0165C71.1261 28.8781 71.1593 28.9182 71.14 29.0281L70.6915 31.5717C70.5287 32.4949 69.8811 33.0601 68.8485 33.0601C67.8276 33.0601 67.3734 32.4949 67.5363 31.5717L67.9847 29.0281C68.0041 28.9182 68.0458 28.8781 68.1612 28.8781H68.4149C68.5303 28.8781 68.558 28.9182 68.5386 29.0281L68.089 31.5775Z" fill="white"/>
<path d="M75.1034 28.8747C75.213 28.8747 75.2462 28.9149 75.2269 29.0247L75.1883 29.2438C75.1689 29.3533 75.1214 29.3938 75.0118 29.3938H73.9216L73.3176 32.8202C73.2982 32.9297 73.2565 32.9702 73.1411 32.9702H72.8874C72.772 32.9702 72.7445 32.9297 72.7637 32.8202L73.3679 29.3938H72.2777C72.1623 29.3938 72.1348 29.3533 72.154 29.2438L72.1928 29.0247C72.2121 28.9149 72.2539 28.8747 72.3691 28.8747H75.1034Z" fill="white"/>
<path d="M76.3131 29.0247C76.3325 28.9149 76.38 28.8747 76.4896 28.8747H76.7434C76.8587 28.8747 76.892 28.9149 76.8726 29.0247L76.2034 32.8202C76.184 32.9297 76.1367 32.9702 76.0213 32.9702H75.7674C75.6578 32.9702 75.6245 32.9297 75.6439 32.8202L76.3131 29.0247Z" fill="white"/>
<path d="M80.629 30.2681C80.7378 29.651 80.4171 29.3105 79.7422 29.3105C79.0673 29.3105 78.6264 29.651 78.5176 30.2681L78.2857 31.5835C78.1768 32.2008 78.4977 32.5409 79.1726 32.5409C79.8475 32.5409 80.2882 32.2008 80.3971 31.5835L80.629 30.2681ZM77.9581 30.2681C78.1208 29.3453 78.8012 28.7914 79.8338 28.7914C80.8664 28.7914 81.3511 29.3453 81.1883 30.2681L80.9564 31.5835C80.7937 32.5065 80.1137 33.0601 79.0811 33.0601C78.0485 33.0601 77.5635 32.5065 77.7262 31.5835L77.9581 30.2681Z" fill="white"/>
<path d="M85.7375 28.8747C85.8472 28.8747 85.8803 28.9149 85.861 29.0247L85.1917 32.8202C85.1725 32.9297 85.1252 32.9702 85.0154 32.9702H84.7616C84.6925 32.9702 84.6444 32.9472 84.6191 32.8952L83.3973 30.5014C83.3293 30.3629 83.2629 30.1839 83.1988 29.959L83.0866 29.613H83.0578C83.0568 29.6188 83.0507 29.7512 83.0394 30.0109C83.0225 30.2703 83.0002 30.4953 82.9666 30.6858L82.5903 32.8202C82.5709 32.9297 82.5236 32.9702 82.4081 32.9702H82.1717C82.0619 32.9702 82.0288 32.9297 82.0482 32.8202L82.7174 29.0247C82.7366 28.9149 82.784 28.8747 82.8937 28.8747H83.1475C83.2167 28.8747 83.2647 28.8977 83.2842 28.9497L84.4902 31.3029C84.5666 31.459 84.6436 31.6434 84.7138 31.8684C84.7835 32.0934 84.8199 32.2145 84.8236 32.2261H84.8524C84.8543 32.2145 84.8616 32.0762 84.8797 31.8106C84.8964 31.5512 84.9209 31.3147 84.9565 31.1127L85.3246 29.0247C85.344 28.9149 85.3859 28.8747 85.5011 28.8747H85.7375Z" fill="white"/>
<path d="M88.7339 28.7914C89.5182 28.7914 89.9021 29.0683 90.0895 29.674C90.1195 29.7666 90.0782 29.8358 89.9731 29.876L89.7116 29.9857C89.5937 30.0318 89.5613 30.0202 89.5287 29.9107C89.3911 29.5125 89.1469 29.3281 88.6392 29.3281C87.9989 29.3281 87.6373 29.5472 87.5611 29.9796C87.5071 30.2857 87.6641 30.4413 87.9374 30.5279C88.1385 30.5971 88.2797 30.6143 88.5517 30.6431C88.8731 30.6836 89.0595 30.7065 89.3229 30.8162C89.457 30.874 89.5543 30.943 89.6275 31.0183C89.7672 31.1739 89.8579 31.4449 89.7938 31.8083C89.6566 32.5873 88.9966 33.0601 87.9754 33.0601C87.1274 33.0601 86.7162 32.7429 86.5743 32.0738C86.5535 31.964 86.5846 31.918 86.7073 31.8776L86.9591 31.7911C87.064 31.7505 87.112 31.7738 87.139 31.8833C87.2529 32.316 87.5604 32.5351 88.068 32.5351C88.7601 32.5351 89.1481 32.2988 89.2325 31.8199C89.2742 31.5833 89.1986 31.4219 89.0014 31.3297C88.8034 31.2433 88.6411 31.2142 88.3252 31.1739C88.0304 31.145 87.896 31.122 87.6371 31.0528C87.5037 31.024 87.4024 30.9778 87.3251 30.9258C87.085 30.7815 86.8755 30.4989 86.9837 30.0144C87.114 29.2761 87.7591 28.7914 88.7339 28.7914Z" fill="white"/>
<path d="M94.6818 30.9629C95.1837 30.9629 95.5289 30.6744 95.6153 30.1841C95.7017 29.6939 95.4603 29.394 94.9584 29.394H93.8796L93.603 30.9629H94.6818ZM95.102 28.8749C95.9154 28.8749 96.3413 29.3706 96.198 30.1841C96.0554 30.9917 95.4671 31.4821 94.6423 31.4821H93.5115L93.2754 32.8204C93.2562 32.9298 93.2089 32.9702 93.0934 32.9702H92.8396C92.7298 32.9702 92.6969 32.9298 92.7161 32.8204L93.3854 29.0248C93.4047 28.9151 93.4521 28.8749 93.5618 28.8749H95.102Z" fill="white"/>
<path d="M99.2326 29.394H98.073L97.8239 30.8072H98.9834C99.439 30.8072 99.7446 30.5474 99.8229 30.1033C99.9032 29.6476 99.6883 29.394 99.2326 29.394ZM99.3761 28.8749C100.155 28.8749 100.543 29.3248 100.406 30.1033C100.297 30.7208 99.9128 31.1301 99.3549 31.2515C99.4488 31.3091 99.5274 31.4187 99.5865 31.5743L100.008 32.8146C100.042 32.9182 100.009 32.9702 99.9 32.9702H99.6461C99.4559 32.9702 99.4021 32.9474 99.3695 32.8376L99.0308 31.782C98.9245 31.4359 98.7706 31.3264 98.3498 31.3264H97.7323L97.4688 32.8204C97.4496 32.9298 97.4023 32.9702 97.2867 32.9702H97.0331C96.9232 32.9702 96.8903 32.9298 96.9095 32.8204L97.5787 29.0248C97.5981 28.9151 97.6454 28.8749 97.7552 28.8749H99.3761Z" fill="white"/>
<path d="M101.883 29.0247C101.903 28.9149 101.95 28.8747 102.06 28.8747H102.313C102.429 28.8747 102.462 28.9149 102.443 29.0247L101.773 32.8202C101.754 32.9297 101.707 32.9702 101.591 32.9702H101.338C101.228 32.9702 101.195 32.9297 101.214 32.8202L101.883 29.0247Z" fill="white"/>
<path d="M106.994 28.8747C107.104 28.8747 107.123 28.9263 107.066 29.0247L104.95 32.8432C104.906 32.9297 104.841 32.9702 104.743 32.9702H104.507C104.409 32.9702 104.353 32.9297 104.338 32.8489L103.57 29.0247C103.553 28.9263 103.597 28.8747 103.7 28.8747H103.925C104.11 28.8747 104.152 28.8977 104.173 29.0071L104.688 31.7762C104.722 31.9782 104.734 32.3011 104.739 32.3067H104.762C104.77 32.2953 104.895 31.9782 104.999 31.7818L106.48 29.0071C106.54 28.8977 106.596 28.8747 106.781 28.8747H106.994Z" fill="white"/>
<path d="M109.19 29.9245C109.157 29.7226 109.154 29.5382 109.182 29.3821H109.147L109.127 29.4629C109.104 29.561 109.034 29.7631 108.954 29.9187L108.103 31.4415H109.499L109.19 29.9245ZM110.375 32.8202C110.393 32.9182 110.349 32.9702 110.245 32.9702H110.02C109.836 32.9702 109.788 32.9472 109.767 32.8375L109.575 31.897H107.867L107.344 32.8375C107.284 32.9472 107.228 32.9702 107.044 32.9702H106.842C106.738 32.9702 106.712 32.9182 106.764 32.8202L108.94 28.9899C108.983 28.9035 109.054 28.8629 109.152 28.8629H109.383C109.481 28.8629 109.537 28.9035 109.552 28.9841L110.375 32.8202Z" fill="white"/>
<path d="M114.178 28.8747C114.287 28.8747 114.32 28.9149 114.301 29.0247L114.263 29.2438C114.243 29.3533 114.196 29.3938 114.086 29.3938H112.996L112.392 32.8202C112.372 32.9297 112.331 32.9702 112.215 32.9702H111.962C111.846 32.9702 111.819 32.9297 111.838 32.8202L112.442 29.3938H111.352C111.237 29.3938 111.209 29.3533 111.228 29.2438L111.267 29.0247C111.286 28.9149 111.328 28.8747 111.443 28.8747H114.178Z" fill="white"/>
<path d="M117.881 28.8747C117.996 28.8747 118.023 28.9149 118.004 29.0247L117.966 29.2438C117.946 29.3533 117.905 29.3938 117.789 29.3938H115.88L115.661 30.6338H117.305C117.42 30.6338 117.448 30.6744 117.428 30.7896L117.39 31.003C117.37 31.1185 117.329 31.153 117.214 31.153H115.57L115.341 32.4509H117.319C117.435 32.4509 117.462 32.4915 117.443 32.6009L117.404 32.8202C117.385 32.9297 117.343 32.9702 117.228 32.9702H114.84C114.73 32.9702 114.697 32.9297 114.716 32.8202L115.385 29.0247C115.405 28.9149 115.452 28.8747 115.562 28.8747H117.881Z" fill="white"/>
<path d="M121.605 28.8747C121.72 28.8747 121.753 28.9149 121.734 29.0247L121.13 32.4509H122.941C123.056 32.4509 123.09 32.4915 123.07 32.6009L123.032 32.8202C123.012 32.9297 122.965 32.9702 122.85 32.9702H120.629C120.519 32.9702 120.486 32.9297 120.505 32.8202L121.174 29.0247C121.194 28.9149 121.241 28.8747 121.351 28.8747H121.605Z" fill="white"/>
<path d="M124.778 29.0247C124.797 28.9149 124.845 28.8747 124.954 28.8747H125.208C125.324 28.8747 125.357 28.9149 125.337 29.0247L124.668 32.8202C124.649 32.9297 124.601 32.9702 124.486 32.9702H124.232C124.122 32.9702 124.089 32.9297 124.109 32.8202L124.778 29.0247Z" fill="white"/>
<path d="M130.432 28.8747C130.542 28.8747 130.575 28.9149 130.556 29.0247L129.887 32.8202C129.868 32.9297 129.82 32.9702 129.71 32.9702H129.48C129.364 32.9702 129.337 32.9297 129.356 32.8202L129.723 30.7378C129.779 30.4203 129.878 30.0573 130.018 29.6532H129.99C129.827 29.9532 129.614 30.2765 129.357 30.6223L128.395 31.9262C128.341 32.0012 128.271 32.0356 128.196 32.0356H128.052C127.977 32.0356 127.92 32.0012 127.893 31.9262L127.381 30.6108C127.264 30.3225 127.176 30.0051 127.117 29.6532H127.082C127.081 30.0167 127.046 30.3801 126.983 30.7378L126.616 32.8202C126.597 32.9297 126.555 32.9702 126.44 32.9702H126.22C126.111 32.9702 126.078 32.9297 126.097 32.8202L126.766 29.0247C126.786 28.9149 126.833 28.8747 126.943 28.8747H127.145C127.266 28.8747 127.302 28.8977 127.337 28.9899L128.248 31.3493L129.984 28.9957C130.054 28.8977 130.092 28.8747 130.213 28.8747H130.432Z" fill="white"/>
<path d="M131.985 29.0247C132.004 28.9149 132.052 28.8747 132.161 28.8747H132.415C132.531 28.8747 132.564 28.9149 132.544 29.0247L131.875 32.8202C131.856 32.9297 131.808 32.9702 131.693 32.9702H131.439C131.33 32.9702 131.296 32.9297 131.316 32.8202L131.985 29.0247Z" fill="white"/>
<path d="M136.539 28.8747C136.649 28.8747 136.682 28.9149 136.662 29.0247L136.624 29.2438C136.604 29.3533 136.557 29.3938 136.447 29.3938H135.357L134.753 32.8202C134.734 32.9297 134.692 32.9702 134.577 32.9702H134.323C134.207 32.9702 134.18 32.9297 134.199 32.8202L134.803 29.3938H133.713C133.598 29.3938 133.57 29.3533 133.59 29.2438L133.628 29.0247C133.648 28.9149 133.69 28.8747 133.805 28.8747H136.539Z" fill="white"/>
<path d="M140.24 28.8747C140.356 28.8747 140.383 28.9149 140.363 29.0247L140.325 29.2438C140.306 29.3533 140.264 29.3938 140.148 29.3938H138.239L138.02 30.6338H139.665C139.78 30.6338 139.807 30.6744 139.787 30.7896L139.75 31.003C139.729 31.1185 139.688 31.153 139.573 31.153H137.929L137.7 32.4509H139.679C139.794 32.4509 139.822 32.4915 139.802 32.6009L139.764 32.8202C139.744 32.9297 139.703 32.9702 139.587 32.9702H137.199C137.089 32.9702 137.056 32.9297 137.075 32.8202L137.745 29.0247C137.764 28.9149 137.811 28.8747 137.921 28.8747H140.24Z" fill="white"/>
<path d="M143.927 30.3917C144.04 29.7512 143.705 29.3938 142.989 29.3938H142.141L141.602 32.4511H142.45C143.166 32.4511 143.627 32.0934 143.74 31.4529L143.927 30.3917ZM143.081 28.8747C144.142 28.8747 144.652 29.4513 144.485 30.3975L144.3 31.4471C144.133 32.3933 143.42 32.9702 142.359 32.9702H141.101C140.992 32.9702 140.959 32.9297 140.978 32.8202L141.647 29.0247C141.666 28.9149 141.714 28.8747 141.824 28.8747H143.081Z" fill="white"/>
</svg>
