<svg width="81" height="80" viewBox="0 0 81 80" fill="none" xmlns="http://www.w3.org/2000/svg">
<circle cx="40.5" cy="40" r="40" fill="white"/>
<path d="M39.7559 29.1365C37.9791 29.6381 36.6184 31.0592 36.1622 32.8732C36.0022 33.5086 36.0102 34.8712 36.1702 35.5232C36.6345 37.4125 38.1472 38.9005 39.98 39.2934C40.7564 39.4606 41.2526 39.4606 42.029 39.2934C43.0054 39.0844 43.7418 38.6664 44.4941 37.889C45.2145 37.145 45.6147 36.4261 45.8468 35.4898C46.0549 34.6705 45.9828 33.1407 45.7027 32.3884C45.1424 30.8669 43.9739 29.7049 42.5252 29.2201C41.7649 28.9609 40.5003 28.9275 39.7559 29.1365Z" fill="url(#paint0_linear_1115_6090)"/>
<path d="M31.1199 33.6089C30.1514 33.8597 29.343 34.5368 28.9028 35.4898C28.6787 35.9496 28.6387 36.1335 28.6147 36.8106C28.5827 37.471 28.6067 37.6716 28.7588 38.1147C29.1029 39.0928 29.6232 39.6863 30.5116 40.121C31.4801 40.5975 32.7526 40.5139 33.6571 39.9204C35.682 38.5661 35.722 35.4814 33.7211 34.0854C32.9607 33.5587 31.9923 33.3832 31.1199 33.6089Z" fill="url(#paint1_linear_1115_6090)"/>
<path d="M49.2324 33.6507C47.6236 34.0854 46.6231 35.7239 46.8632 37.5295C47.0793 39.2098 48.464 40.4303 50.1448 40.4303C51.4414 40.4303 52.5619 39.6863 53.1542 38.424C53.3543 38.006 53.3703 37.8806 53.3703 37.0029C53.3703 36.0833 53.3623 36.0164 53.1062 35.4731C52.642 34.495 51.8016 33.8095 50.7851 33.5838C50.2168 33.4584 49.8727 33.4751 49.2324 33.6507Z" fill="url(#paint2_linear_1115_6090)"/>
<path d="M36.6425 39.9622C34.6335 40.5891 33.1048 41.4669 32.1604 42.5369C31.6481 43.1137 31.368 43.5902 31.0879 44.351C30.8958 44.8776 30.8878 44.9947 30.8638 47.118C30.8317 49.2998 30.8317 49.3416 31.0158 49.7095C31.2559 50.2027 31.6881 50.4284 33.3289 50.9132C36.0822 51.7409 37.9391 52 41.0045 52C44.07 52 45.9268 51.7409 48.6801 50.9132C50.3209 50.4284 50.7531 50.2027 50.9852 49.7095C51.1613 49.3584 51.1693 49.2497 51.1693 47.4106C51.1693 45.212 51.0893 44.6519 50.649 43.724C49.9527 42.236 48.1599 40.8901 45.8068 40.1043C44.4221 39.6445 44.3501 39.6362 43.9499 39.8702C42.9414 40.4805 41.4687 40.7731 40.2842 40.6142C39.5158 40.5055 38.6114 40.2046 38.0671 39.8786C37.8831 39.7699 37.683 39.6779 37.6269 39.6779C37.5709 39.6863 37.1307 39.8117 36.6425 39.9622Z" fill="url(#paint3_linear_1115_6090)"/>
<path d="M28.5747 41.2663C26.9259 41.8431 25.7414 42.7292 25.2611 43.7574C25.037 44.2256 25.037 44.259 25.013 45.9894C24.981 48.0459 24.933 47.9205 25.8854 48.2549C26.8939 48.6144 29.0389 49.1243 29.5271 49.1243C29.5992 49.1243 29.6312 48.5976 29.6552 46.9675L29.6872 44.8191L29.9433 44.0166C30.1754 43.2809 30.8318 42.0521 31.0719 41.9016C31.256 41.7846 31.1519 41.6174 30.8638 41.5672C30.6957 41.5421 30.3275 41.4084 30.0554 41.2663C29.7753 41.1325 29.4871 41.0155 29.4151 41.0239C29.335 41.0239 28.9589 41.1325 28.5747 41.2663Z" fill="url(#paint4_linear_1115_6090)"/>
<path d="M52.0257 41.2328C51.8176 41.3499 51.4654 41.4836 51.2493 41.5421C51.0252 41.5923 50.8491 41.6675 50.8491 41.7093C50.8491 41.7428 50.9932 41.9601 51.1693 42.1942C51.3453 42.4283 51.6175 42.888 51.7615 43.2224C52.2578 44.3008 52.3058 44.6017 52.3458 46.9675C52.3778 48.5976 52.4098 49.1243 52.4819 49.1243C52.5379 49.1243 52.9941 49.049 53.4984 48.9487C54.7069 48.723 56.3957 48.2215 56.7159 48.0041L56.972 47.8202L56.996 46.1984C57.02 44.3259 56.948 43.9581 56.4517 43.2642C55.8274 42.4032 54.7629 41.701 53.3463 41.2328C52.5539 40.9737 52.5139 40.9737 52.0257 41.2328Z" fill="url(#paint5_linear_1115_6090)"/>
<defs>
<linearGradient id="paint0_linear_1115_6090" x1="21" y1="26.3992" x2="57" y2="51.9992" gradientUnits="userSpaceOnUse">
<stop stop-color="#EE1A13"/>
<stop offset="1" stop-color="#FB6F03"/>
</linearGradient>
<linearGradient id="paint1_linear_1115_6090" x1="21" y1="26.3992" x2="57" y2="51.9992" gradientUnits="userSpaceOnUse">
<stop stop-color="#EE1A13"/>
<stop offset="1" stop-color="#FB6F03"/>
</linearGradient>
<linearGradient id="paint2_linear_1115_6090" x1="21" y1="26.3992" x2="57" y2="51.9992" gradientUnits="userSpaceOnUse">
<stop stop-color="#EE1A13"/>
<stop offset="1" stop-color="#FB6F03"/>
</linearGradient>
<linearGradient id="paint3_linear_1115_6090" x1="21" y1="26.3992" x2="57" y2="51.9992" gradientUnits="userSpaceOnUse">
<stop stop-color="#EE1A13"/>
<stop offset="1" stop-color="#FB6F03"/>
</linearGradient>
<linearGradient id="paint4_linear_1115_6090" x1="21" y1="26.3992" x2="57" y2="51.9992" gradientUnits="userSpaceOnUse">
<stop stop-color="#EE1A13"/>
<stop offset="1" stop-color="#FB6F03"/>
</linearGradient>
<linearGradient id="paint5_linear_1115_6090" x1="21" y1="26.3992" x2="57" y2="51.9992" gradientUnits="userSpaceOnUse">
<stop stop-color="#EE1A13"/>
<stop offset="1" stop-color="#FB6F03"/>
</linearGradient>
</defs>
</svg>
