<svg width="16" height="16" viewBox="0 0 16 16" fill="none" xmlns="http://www.w3.org/2000/svg">
<path d="M7.21953 0.0179682C6.81015 0.0679684 6.39453 0.142968 6.02578 0.233594C3.77578 0.796094 1.83203 2.37109 0.813281 4.45234C0.453906 5.18672 0.232031 5.87734 0.0851562 6.71797C0.0257812 7.05859 0.0195312 7.22422 0.0195312 7.99922C0.0195312 8.77422 0.0257812 8.93984 0.0851562 9.28047C0.232031 10.1242 0.457031 10.818 0.816406 11.5492C1.82891 13.6117 3.73828 15.1711 5.95703 15.7492C6.72578 15.9492 7.01953 15.9805 8.00078 15.9805C8.77578 15.9805 8.9414 15.9742 9.28203 15.9148C10.4477 15.7086 11.4914 15.3023 12.4164 14.6867C14.3164 13.4211 15.5477 11.4992 15.9289 9.20234C16.0102 8.70547 16.0102 7.28984 15.9289 6.79609C15.6945 5.40547 15.1977 4.23047 14.382 3.14609C14.0945 2.76484 13.5227 2.16797 13.1258 1.83672C12.2633 1.11172 11.1414 0.533593 10.0445 0.249219C9.33515 0.0648432 9.00078 0.0242186 8.12578 0.0148439C7.68828 0.00859356 7.2789 0.0117188 7.21953 0.0179682ZM6.07265 4.64609C6.51953 5.08984 6.90078 5.49609 6.92578 5.55234C6.95703 5.62734 6.96015 5.67422 6.93515 5.73984C6.91953 5.78672 6.68203 6.05234 6.41015 6.32734C5.82578 6.91797 5.76953 7.00547 5.78828 7.33047C5.79765 7.53047 5.81328 7.57422 5.91328 7.72109C6.38515 8.40547 7.2789 9.32109 8.01328 9.87109C8.41015 10.168 8.5039 10.218 8.70078 10.2398C9.01015 10.2711 9.1039 10.2148 9.70703 9.62109C10.2352 9.09922 10.2414 9.09297 10.3789 9.09297H10.5164L11.3508 9.93047C12.1758 10.7555 12.1883 10.7711 12.1883 10.8961C12.1883 11.0117 12.1664 11.0492 12.0102 11.2211C11.382 11.8992 10.807 12.1805 10.1102 12.1461C9.76953 12.1305 9.47265 12.0555 8.92265 11.8367C7.11015 11.118 5.23515 9.37734 4.33516 7.57734C3.96953 6.84297 3.81328 6.35859 3.81328 5.93359C3.81328 5.29922 3.99141 4.88984 4.51328 4.32422C4.86016 3.95234 5.0039 3.84297 5.1539 3.84297C5.25703 3.84297 5.31953 3.89922 6.07265 4.64609Z" fill="#BDBEC4"/>
</svg>
