<svg width="134" height="66" viewBox="0 0 134 66" fill="none" xmlns="http://www.w3.org/2000/svg">
<path fill-rule="evenodd" clip-rule="evenodd" d="M105.733 30.3229C108.008 28.4063 109.142 26.5053 108.544 25.2042C108.325 24.7269 107.893 24.3669 107.26 24.1331C107.015 24.0458 106.763 23.9796 106.507 23.9352C106.51 23.912 106.515 23.8904 106.515 23.8665C106.508 23.6689 106.427 23.4813 106.288 23.342C106.148 23.2028 105.96 23.1224 105.763 23.1174C105.567 23.1125 105.375 23.1833 105.229 23.3153C105.082 23.4474 104.992 23.6307 104.976 23.8276C104.738 23.8314 104.493 23.8426 104.239 23.862C104.362 22.5952 104.295 21.5129 104.013 20.7204C103.788 20.0833 103.435 19.6463 102.963 19.4208C102.49 19.1952 101.929 19.196 101.294 19.4223C100.222 19.8054 98.9839 20.831 97.7515 22.2942C96.5057 20.825 95.2584 19.7965 94.1785 19.4163C93.5429 19.193 92.9825 19.1945 92.5114 19.4215C92.0388 19.6486 91.6876 20.0878 91.465 20.7257C91.1934 21.4995 91.1264 22.5452 91.2425 23.7694C90.8749 23.7335 90.5258 23.7171 90.1932 23.7156C90.1303 23.5644 90.0211 23.4371 89.8815 23.3523C89.7418 23.2674 89.5788 23.2294 89.4162 23.2436C89.2535 23.2578 89.0996 23.3236 88.9767 23.4314C88.8537 23.5392 88.7681 23.6835 88.7322 23.8433C88.5431 23.8813 88.3566 23.9317 88.1741 23.9942C87.5385 24.219 87.1031 24.5731 86.8776 25.0466C86.6507 25.5202 86.6507 26.0833 86.8747 26.7205C87.2453 27.7729 88.2247 28.9836 89.6246 30.1959C87.4328 32.0766 86.35 33.9305 86.9372 35.2085C87.4514 36.3274 89.1349 36.7561 91.4591 36.5403C91.442 36.7195 91.4301 36.895 91.4196 37.0668C91.1145 37.1707 90.892 37.456 90.892 37.7981C90.892 38.1499 91.1272 38.4427 91.4472 38.5375C91.5797 39.767 92.0053 40.6379 92.7451 40.9897C93.2177 41.216 93.7788 41.2145 94.4122 40.9882C95.434 40.6237 96.6024 39.6781 97.7761 38.3276C99.6843 40.4997 101.551 41.5588 102.814 40.9493C103.531 40.605 103.949 39.7722 104.089 38.5995C104.202 38.6329 104.321 38.6398 104.437 38.6197C104.553 38.5995 104.663 38.5529 104.758 38.4835C104.853 38.414 104.931 38.3235 104.986 38.2189C105.041 38.1144 105.071 37.9986 105.074 37.8806C105.077 37.7625 105.053 37.6453 105.004 37.538C104.955 37.4307 104.882 37.3362 104.79 37.2617C104.699 37.1873 104.592 37.1349 104.477 37.1086C104.362 37.0823 104.243 37.0829 104.129 37.1102C104.12 36.9529 104.109 36.7957 104.095 36.6389C105.28 36.7427 106.294 36.671 107.048 36.4043C107.683 36.1795 108.119 35.8255 108.344 35.3512C108.57 34.8784 108.571 34.3152 108.347 33.678C107.988 32.6592 107.06 31.4948 105.733 30.3229Z" fill="#585655"/>
<path fill-rule="evenodd" clip-rule="evenodd" d="M95.121 33.7985C95.774 34.1276 96.4372 34.4359 97.1096 34.7232C96.7099 34.8718 96.3133 35.0107 95.9233 35.1377C95.644 34.6986 95.3765 34.252 95.121 33.7985ZM95.9159 33.7477C95.5333 33.5642 95.1544 33.3732 94.7794 33.1748C94.3034 32.2855 93.8693 31.3742 93.4785 30.444C93.92 29.3292 94.4232 28.24 94.9856 27.1815C95.8733 26.727 96.7818 26.3145 97.708 25.9453C98.694 26.3555 99.6594 26.8139 100.601 27.3189C101.134 28.329 101.615 29.3664 102.04 30.4269C101.665 31.3279 101.251 32.2119 100.799 33.0762C99.7758 33.615 98.7238 34.0962 97.6477 34.5177C97.0629 34.2783 96.4854 34.0215 95.9159 33.7477Z" fill="white"/>
<path fill-rule="evenodd" clip-rule="evenodd" d="M6.44398 47.8487H2.2793V47.6486C2.92156 47.609 3.38596 47.5769 3.38596 47.0839V43.2313C3.38596 42.7062 2.82705 42.6897 2.2793 42.6666V42.4664H6.44398V42.6666C5.88506 42.6823 5.3135 42.6897 5.3135 43.2313V47.0839C5.3135 47.5933 5.7898 47.6179 6.44398 47.6486V47.8487ZM9.95299 47.6486C10.6667 47.5933 11.0001 47.538 11.0001 47.0122V43.2395C10.3333 42.6897 10.1435 42.6658 9.98872 42.6658V42.4657H12.499L16.6279 45.8649H16.6518V43.4531C16.6518 42.9758 16.5089 42.7137 15.5451 42.6651V42.4649H18.1037V42.6651C17.2471 42.7368 17.1757 42.9191 17.1757 43.3015V47.9899H16.8423L11.5479 43.6764H11.5241V46.8598C11.5241 47.4335 11.7741 47.5851 12.6545 47.6478V47.848H9.95374V47.6486H9.95299ZM29.6191 46.8374C28.7506 47.4984 27.8226 47.9989 26.2999 47.9989C23.5276 47.9989 22.028 46.6948 22.028 45.2054C22.028 43.5905 23.742 42.3477 26.2403 42.3477C27.3113 42.3477 28.2274 42.7383 28.5363 42.7383C28.8578 42.7383 28.965 42.5702 29.0833 42.3723H29.4048V44.2351H29.1078C28.6911 43.542 27.6923 42.6113 26.3356 42.6113C24.5986 42.6113 24.1342 43.8281 24.1342 45.1733C24.1342 45.652 24.2056 46.4161 24.6462 46.9255C25.1456 47.4992 26.0863 47.6187 26.4547 47.6187C27.3827 47.6187 28.2751 47.3797 29.2626 46.6387L29.6191 46.8374ZM41.9688 45.1733C41.9688 46.8449 40.196 47.9989 37.7572 47.9989C35.3184 47.9989 33.5449 46.8449 33.5449 45.1733C33.5449 43.4389 35.4605 42.3477 37.7572 42.3477C40.0532 42.3477 41.9688 43.4389 41.9688 45.1733Z" fill="#585655"/>
<path fill-rule="evenodd" clip-rule="evenodd" d="M35.6543 45.1752C35.6543 45.8684 35.7257 47.7387 37.7605 47.7387C39.7944 47.7387 39.8659 45.8684 39.8659 45.1752C39.8659 44.0138 39.426 42.6133 37.7605 42.6133C36.0949 42.6133 35.6543 44.0138 35.6543 45.1752Z" fill="white"/>
<path fill-rule="evenodd" clip-rule="evenodd" d="M53.9867 47.8464H51.5479L49.0845 45.3547H48.763V46.9143C48.763 47.5522 49.025 47.5753 49.8101 47.6463V47.8464H45.7891V47.6463C46.598 47.5835 46.8354 47.5589 46.8354 46.9143V43.397C46.8354 42.7128 46.4663 42.6964 45.7891 42.665V42.4648H49.6196C50.4524 42.4648 52.9746 42.5291 52.9746 43.8668C52.9746 44.846 51.7496 45.0925 51.1066 45.2277L53.4985 47.4961C53.6652 47.6388 53.8431 47.6463 53.986 47.6463V47.8464H53.9867Z" fill="#585655"/>
<path fill-rule="evenodd" clip-rule="evenodd" d="M48.7637 45.1015C50.3228 45.0941 50.9413 44.9193 50.9413 43.8848C50.9413 43.0796 50.4538 42.7383 49.5012 42.7383C48.847 42.7383 48.8232 42.8257 48.7637 43.0722V45.1015Z" fill="white"/>
<path fill-rule="evenodd" clip-rule="evenodd" d="M57.3523 47.6463C57.935 47.5835 57.9588 47.5746 58.0422 47.5357C58.1851 47.464 58.3518 47.3609 58.3518 46.9143V43.397C58.3518 42.7278 57.9834 42.7039 57.3523 42.665V42.4648H61.1836C62.1354 42.4648 64.3004 42.5844 64.3004 43.9296C64.3004 44.2082 64.1694 44.7743 63.2175 45.1314C62.4562 45.4189 61.8489 45.4264 60.2786 45.4331V46.9135C60.2786 47.5581 60.5048 47.5746 61.3257 47.6455V47.8457H57.3516V47.6463H57.3523Z" fill="#585655"/>
<path fill-rule="evenodd" clip-rule="evenodd" d="M60.2773 45.1626C61.7174 45.1775 62.2525 44.9467 62.2525 43.9608C62.2525 43.0533 61.8246 42.75 60.8489 42.75C60.4448 42.75 60.29 42.8538 60.2773 43.0286V45.1626Z" fill="white"/>
<path fill-rule="evenodd" clip-rule="evenodd" d="M76.3626 45.1733C76.3626 46.8449 74.5906 47.9989 72.1518 47.9989C69.7129 47.9989 67.9395 46.8449 67.9395 45.1733C67.9395 43.4389 69.8551 42.3477 72.1518 42.3477C74.4462 42.3477 76.3626 43.4389 76.3626 45.1733Z" fill="#585655"/>
<path fill-rule="evenodd" clip-rule="evenodd" d="M70.0449 45.1752C70.0449 45.8684 70.1164 47.7387 72.1511 47.7387C74.1843 47.7387 74.2558 45.8684 74.2558 45.1752C74.2558 44.0138 73.8167 42.6133 72.1511 42.6133C70.4855 42.6133 70.0449 44.0138 70.0449 45.1752Z" fill="white"/>
<path fill-rule="evenodd" clip-rule="evenodd" d="M88.3805 47.8464H85.9417L83.479 45.3547H83.1575V46.9143C83.1575 47.5522 83.4195 47.5753 84.2039 47.6463V47.8464H80.1836V47.6463C80.9918 47.5835 81.23 47.5589 81.23 46.9143V43.397C81.23 42.7128 80.8608 42.6964 80.1836 42.665V42.4648H84.0134C84.8462 42.4648 87.3684 42.5291 87.3684 43.8668C87.3684 44.846 86.1434 45.0925 85.5003 45.2277L87.893 47.4961C88.059 47.6388 88.2376 47.6463 88.3798 47.6463V47.8464H88.3805Z" fill="#585655"/>
<path fill-rule="evenodd" clip-rule="evenodd" d="M83.1562 45.1015C84.7147 45.0941 85.3339 44.9193 85.3339 43.8848C85.3339 43.0796 84.8457 42.7383 83.893 42.7383C83.2389 42.7383 83.2158 42.8257 83.1562 43.0722V45.1015Z" fill="white"/>
<path fill-rule="evenodd" clip-rule="evenodd" d="M99.7565 47.8484H95.9014V47.6482C96.6397 47.6086 96.8533 47.6019 96.8533 47.339C96.8533 47.1231 96.4722 46.5338 96.3055 46.2798H93.6293C93.2951 46.8535 93.1061 47.1784 93.1061 47.3068C93.1061 47.6086 93.6762 47.6325 94.0818 47.6482V47.8484H91.666V47.6482C92.3083 47.5855 92.4757 47.3143 92.8315 46.7175L95.4727 42.3555H95.8069L98.4593 46.542C98.9944 47.3942 99.1849 47.6639 99.7557 47.6474V47.8484H99.7565Z" fill="#585655"/>
<path fill-rule="evenodd" clip-rule="evenodd" d="M96.124 45.9697L94.9221 44.0352L93.8027 45.9697H96.124Z" fill="white"/>
<path fill-rule="evenodd" clip-rule="evenodd" d="M109.006 47.8472H104.758V47.647C105.628 47.6007 105.913 47.5843 105.913 46.915V42.721C105.08 42.7532 103.854 42.7927 103.616 44.0663H103.271L103.308 42.4656H110.447L110.47 44.0663H110.125C109.887 42.7927 108.661 42.7532 107.84 42.721V46.915C107.84 47.5918 108.127 47.6082 109.006 47.647V47.8472ZM113.726 42.4656H120.591V44.0663H120.295C120.02 42.9354 119.176 42.7375 117.57 42.7375C116.915 42.7375 116.702 42.7696 116.702 43.1109V44.9581C117.844 44.9671 118.451 44.7594 118.629 43.772H118.939V46.4624H118.629C118.486 45.4675 117.879 45.23 116.702 45.23V47.1556C116.702 47.5059 116.927 47.6022 117.701 47.6022C118.866 47.6022 120.08 47.3953 120.83 46.1928H121.163L120.687 47.8487H113.726V47.6485C114.404 47.6022 114.773 47.5768 114.773 47.0838V43.2312C114.773 42.7061 114.273 42.6897 113.726 42.6665V42.4656ZM124.996 47.647C125.746 47.647 125.983 47.4162 125.983 47.1219V43.1976C125.983 42.7136 125.46 42.6971 124.996 42.665V42.4648H128.624C131.956 42.4648 133.039 43.8504 133.039 45.0761C133.039 46.5408 131.754 47.7822 128.755 47.8465H124.996V47.647Z" fill="#585655"/>
<path fill-rule="evenodd" clip-rule="evenodd" d="M127.911 47.1078C127.911 47.4275 128.019 47.5702 128.59 47.5702C129.923 47.5702 130.969 47.0607 130.969 45.1583C130.969 44.4331 130.696 42.7383 128.649 42.7383C127.888 42.7383 127.899 42.937 127.911 43.1117V47.1078Z" fill="white"/>
<path fill-rule="evenodd" clip-rule="evenodd" d="M57.6352 20.9688V29.6264L53.6684 20.9688H45.2081V39.7838H51.8183V29.2178L57.205 39.7838H64.2446V20.9688H57.6352ZM36.0854 39.7838H43.3237L38.1677 20.9688H27.1621L21.957 39.7838H29.2973L29.9656 36.752H35.3873L36.0854 39.7838Z" fill="#585655"/>
<path fill-rule="evenodd" clip-rule="evenodd" d="M30.9004 32.325L32.6151 24.2148L34.4079 32.325H30.9004Z" fill="white"/>
<path fill-rule="evenodd" clip-rule="evenodd" d="M21.3122 39.7851L16.0074 32.0769C21.56 31.7288 21.1634 26.454 21.1634 26.454C20.7808 20.7363 14.8672 20.9701 14.8672 20.9701H2.24219V39.7851H8.85239V33.0606L13.3802 39.7851H21.3122Z" fill="#585655"/>
<path fill-rule="evenodd" clip-rule="evenodd" d="M12.0912 30.087H8.85156V25.9573H12.0912C14.2144 25.9319 14.1728 27.8477 14.1728 27.8477C14.3224 30.2596 12.0912 30.087 12.0912 30.087Z" fill="white"/>
<path fill-rule="evenodd" clip-rule="evenodd" d="M78.6237 20.973H67.6836V39.788H78.1772C78.1772 39.788 86.5861 40.0389 86.3577 30.5866C86.3577 30.5866 86.7707 20.7362 78.6237 20.973Z" fill="#585655"/>
<path fill-rule="evenodd" clip-rule="evenodd" d="M79.3659 32.6759C79.3659 32.6759 79.0682 35.081 76.5386 35.0317H74.291V26.6885H76.4396C76.4396 26.6885 79.1173 26.5563 79.3659 29.293C79.3659 29.2923 79.514 31.5316 79.3659 32.6759Z" fill="white"/>
<path fill-rule="evenodd" clip-rule="evenodd" d="M97.7113 28.3594C97.3508 28.3594 96.9984 28.4667 96.6987 28.6677C96.399 28.8687 96.1654 29.1543 96.0274 29.4886C95.8895 29.8228 95.8534 30.1906 95.9237 30.5455C95.994 30.9003 96.1676 31.2262 96.4225 31.4821C96.6774 31.7379 97.0022 31.9121 97.3557 31.9827C97.7093 32.0533 98.0757 32.017 98.4088 31.8786C98.7418 31.7401 99.0264 31.5057 99.2267 31.2049C99.427 30.9041 99.5339 30.5504 99.5339 30.1886C99.534 29.9484 99.4869 29.7104 99.3953 29.4885C99.3038 29.2665 99.1695 29.0648 99.0003 28.8949C98.831 28.725 98.63 28.5903 98.4089 28.4984C98.1877 28.4065 97.9507 28.3593 97.7113 28.3594Z" fill="#585655"/>
<path fill-rule="evenodd" clip-rule="evenodd" d="M104.189 24.26C104.49 24.2346 104.78 24.2204 105.054 24.2181C105.182 24.4691 105.44 24.6424 105.739 24.6424C105.999 24.6424 106.227 24.5124 106.368 24.3152C106.642 24.3623 106.895 24.425 107.12 24.5079C107.649 24.7044 108.006 24.9942 108.18 25.3714C108.694 26.4918 107.558 28.2545 105.411 30.0494C104.71 29.4615 103.975 28.9148 103.211 28.4121C103.701 26.9272 104.032 25.5133 104.189 24.26ZM94.696 26.8794C93.9788 27.2469 93.2758 27.6415 92.5884 28.0626C92.1382 26.683 91.8293 25.3751 91.6797 24.2159C92.8816 24.3728 94.2421 24.6999 95.6755 25.1802C95.3406 25.7209 95.0131 26.2901 94.696 26.8794ZM96.0595 25.3109C96.4286 25.4401 96.8037 25.5805 97.1803 25.7292C96.5512 25.9899 95.9303 26.2699 95.3182 26.5687C95.5601 26.1347 95.8072 25.7157 96.0595 25.3109ZM93.2619 29.9134C93.0682 29.4335 92.8878 28.9483 92.7209 28.4584C93.2601 28.1225 93.8099 27.8039 94.3693 27.5031C93.9685 28.2915 93.5991 29.0956 93.2619 29.9134ZM93.2731 30.9726C93.5447 31.5955 93.8447 32.2274 94.1528 32.8324C93.7231 32.5931 93.299 32.3438 92.8809 32.0847C93.0015 31.718 93.1339 31.3468 93.2731 30.9726ZM93.0483 30.4415C92.8638 30.9106 92.6904 31.3841 92.5281 31.8614C91.7366 31.3564 90.9747 30.806 90.2463 30.2129C90.9285 29.662 91.6403 29.1491 92.3785 28.6765C92.5772 29.2569 92.802 29.8462 93.0483 30.4415ZM92.7573 32.4724C93.3081 32.8137 93.8856 33.1461 94.484 33.4665C94.8211 34.0955 95.1671 34.696 95.5221 35.2621C94.2346 35.6588 93.0148 35.9329 91.926 36.0748C92.0712 34.9843 92.3517 33.7638 92.7573 32.4724ZM101.547 28.3135C101.441 28.0946 101.333 27.8768 101.224 27.66C101.738 27.9505 102.244 28.2559 102.741 28.5757C102.592 29.0104 102.429 29.4503 102.254 29.8948C102.032 29.3617 101.796 28.8344 101.547 28.3135ZM102.631 32.0324C102.239 32.2737 101.833 32.5127 101.413 32.745C101.707 32.1587 101.988 31.5529 102.245 30.9554C102.382 31.3184 102.512 31.6769 102.631 32.0324ZM100.894 27.0251C100.561 26.3995 100.206 25.7854 99.8312 25.1839C101.254 24.735 102.602 24.4355 103.79 24.3003C103.636 25.4745 103.325 26.7965 102.871 28.1903C102.226 27.7772 101.567 27.3885 100.894 27.0251ZM100.261 26.6897C99.5979 26.3497 98.924 26.0321 98.24 25.7374C98.6387 25.5863 99.0405 25.4433 99.4449 25.3086C99.7225 25.7508 99.9949 26.2132 100.261 26.6897ZM99.5424 34.138C99.8565 33.9924 100.165 33.843 100.467 33.6921C100.179 34.213 99.8774 34.7256 99.561 35.2293C99.0982 35.074 98.6392 34.9076 98.1842 34.7303C98.6415 34.5436 99.0944 34.3461 99.5424 34.138ZM101.089 33.3739C101.655 33.0761 102.213 32.7613 102.76 32.4298C103.192 33.7862 103.486 35.0672 103.628 36.198C102.518 36.0591 101.268 35.7738 99.948 35.3548C100.352 34.7087 100.733 34.048 101.089 33.3739ZM102.47 30.4221C102.693 29.8753 102.897 29.3331 103.08 28.7983C103.82 29.2912 104.499 29.7962 105.103 30.3011C104.424 30.8424 103.716 31.3463 102.983 31.8106C102.827 31.355 102.656 30.8919 102.47 30.4221ZM101.422 19.8001C102.486 19.4206 103.258 19.7881 103.636 20.8562C103.906 21.6188 103.965 22.6675 103.839 23.9022C102.57 24.0381 101.129 24.3571 99.6131 24.8388C99.1167 24.064 98.578 23.3171 97.9997 22.6018C99.1979 21.1692 100.393 20.1676 101.422 19.8001ZM97.7474 22.911C98.246 23.5295 98.7431 24.2181 99.2254 24.9651C98.7268 25.1316 98.2207 25.3154 97.7124 25.5155C97.2383 25.3212 96.7593 25.1389 96.276 24.9688C96.7306 24.2577 97.2217 23.5709 97.7474 22.911ZM91.8345 20.86C92.2081 19.7904 92.9784 19.4192 94.0441 19.7949C95.0808 20.1601 96.2857 21.164 97.4951 22.6033C96.92 23.317 96.3853 24.0627 95.8935 24.8366C94.3671 24.322 92.9151 23.9754 91.6343 23.8163C91.513 22.6212 91.574 21.6047 91.8345 20.86ZM87.2441 26.5904C86.8691 25.5215 87.2382 24.7485 88.3024 24.3713C88.4478 24.3218 88.5959 24.2806 88.746 24.248C88.845 24.5625 89.1337 24.7925 89.4783 24.7925C89.8735 24.7925 90.195 24.4945 90.2411 24.1106C90.5693 24.1136 90.9169 24.1315 91.2816 24.1688C91.4326 25.4065 91.7601 26.8055 92.2423 28.2777C91.4367 28.7853 90.6626 29.3415 89.9241 29.9433C88.5532 28.7684 87.5999 27.5995 87.2441 26.5904ZM87.2933 35.044C86.7872 33.9438 87.8715 32.2274 89.9405 30.4676C90.7233 31.1108 91.5448 31.7052 92.4001 32.2476C91.9506 33.6451 91.6485 34.9567 91.5018 36.1226C89.3228 36.3444 87.7338 36.0046 87.2933 35.044ZM94.2763 40.6153C93.7442 40.8051 93.285 40.811 92.9114 40.6325C92.3108 40.3465 91.964 39.6025 91.8487 38.5479C92.1828 38.462 92.4314 38.161 92.4314 37.7994C92.4307 37.6239 92.3708 37.4538 92.2615 37.3168C92.1522 37.1798 91.9998 37.084 91.8293 37.0451C91.8397 36.8673 91.8539 36.685 91.8747 36.4968C93.0416 36.3541 94.353 36.0606 95.7484 35.6184C96.2861 36.4587 96.8759 37.2643 97.5144 38.0302C96.3795 39.3478 95.2542 40.2673 94.2763 40.6153ZM96.1503 35.4892C96.6415 35.3256 97.1431 35.1449 97.6506 34.9447C98.2207 35.1755 98.7856 35.3854 99.3422 35.5721C98.8629 36.3127 98.3432 37.0261 97.7853 37.7091C97.198 37.0015 96.652 36.2603 96.1503 35.4892ZM102.638 40.5922C101.553 41.1158 99.826 40.0566 98.0421 38.0116C98.6495 37.2751 99.2126 36.5029 99.7285 35.6991C101.143 36.151 102.486 36.458 103.675 36.5976C103.691 36.7694 103.704 36.9375 103.713 37.1026C103.548 37.1452 103.401 37.2417 103.297 37.3769C103.192 37.5121 103.135 37.6783 103.135 37.8495C103.135 38.1998 103.367 38.4911 103.684 38.5874C103.564 39.5988 103.221 40.3121 102.638 40.5922ZM106.91 36.0292C106.186 36.2862 105.204 36.3519 104.049 36.2436C103.907 35.0388 103.595 33.6712 103.118 32.2095C103.918 31.711 104.687 31.1656 105.423 30.5759C106.72 31.7113 107.624 32.8354 107.967 33.8109C108.344 34.8797 107.974 35.6528 106.91 36.0292Z" fill="white"/>
<path fill-rule="evenodd" clip-rule="evenodd" d="M123.638 20.9688L120.862 29.9356L117.987 20.9688H109.062V39.7838H115.673V29.3575C116.57 32.0188 119.078 39.7838 119.078 39.7838H122.549L126.117 29.3575V39.7838H132.728V20.9688H123.638Z" fill="#585655"/>
</svg>
