<svg width="81" height="80" viewBox="0 0 81 80" fill="none" xmlns="http://www.w3.org/2000/svg">
<circle cx="40.5" cy="40" r="40" fill="white"/>
<path d="M51.687 25.6562L50.037 27.3063L49.9245 29.2313C49.8683 30.2875 49.8245 31.1563 49.8308 31.1688C49.837 31.175 50.712 31.1313 51.7683 31.075L53.687 30.9688L55.3433 29.3125C56.2558 28.4 56.9995 27.6313 56.9995 27.5938C56.9995 27.5125 53.487 24 53.4058 24C53.3683 24 52.5995 24.7437 51.687 25.6562Z" fill="url(#paint0_linear_1115_6108)"/>
<path d="M38.562 25.9188C33.3183 26.4563 28.812 29.6063 26.4933 34.3438C25.7433 35.8813 25.3183 37.3063 25.087 39.0625C24.9433 40.1688 24.9933 42.4125 25.1808 43.4688C25.7245 46.525 27.0495 49.1563 29.137 51.3438C31.4058 53.7188 34.237 55.2313 37.5308 55.8188C38.587 56.0063 40.8308 56.0563 41.937 55.9125C43.6933 55.6813 45.1183 55.2563 46.6558 54.5063C51.0808 52.3438 54.062 48.3688 54.9495 43.4563C55.0745 42.75 55.0933 42.4625 55.0933 40.9375C55.0933 39.4125 55.0745 39.125 54.9495 38.4188C54.762 37.375 54.4495 36.2563 54.1245 35.4375C53.8495 34.75 53.0745 33.1875 52.887 32.9625L52.7808 32.825L49.2558 33.025L48.0495 34.2313L48.4058 34.6313C49.2245 35.5563 49.9433 36.8188 50.3495 38.0188C50.7308 39.1438 50.7808 39.5125 50.7808 41.0313C50.7745 42.575 50.6933 43.1375 50.2683 44.375C49.112 47.8 46.2245 50.4875 42.762 51.3688C40.9245 51.8438 38.8495 51.8063 37.0308 51.2813C32.7495 50.0438 29.587 46.1 29.3245 41.675C29.1495 38.75 30.037 36.125 31.937 33.9563C33.6995 31.9375 36.1495 30.7 38.9308 30.425C41.1433 30.2125 43.6495 30.9438 45.912 32.4688L46.712 33.0063L47.9745 31.7438L48.1745 28.2188L48.0433 28.1125C47.8558 27.9625 46.8933 27.4625 46.187 27.1375C44.9808 26.5875 43.462 26.1625 41.9808 25.9688C41.3058 25.8813 39.212 25.85 38.562 25.9188Z" fill="url(#paint1_linear_1115_6108)"/>
<path d="M38.787 32.25C36.7308 32.5125 34.9433 33.4062 33.5183 34.8937C31.9245 36.5625 31.1183 38.5875 31.1183 40.9312C31.1183 42.425 31.3808 43.5812 31.9933 44.8437C33.2995 47.5125 35.7433 49.3312 38.6495 49.7937C39.4308 49.9125 41.2245 49.875 41.937 49.7187C43.6245 49.35 45.1808 48.4937 46.3995 47.275C47.6183 46.0562 48.4745 44.4937 48.8433 42.8125C48.9808 42.175 49.037 40.475 48.937 39.8C48.7683 38.625 48.1933 37.3062 47.3995 36.2437C47.1495 35.9187 46.9058 35.6187 46.862 35.575C46.7933 35.5187 46.4933 35.7875 45.3558 36.925L43.937 38.3437L44.187 38.825C44.8745 40.1312 44.8745 41.7375 44.187 43.05C42.9933 45.3437 40.212 46.2437 37.9495 45.0625C36.3683 44.2437 35.4308 42.7 35.4308 40.9375C35.4308 39.8375 35.7933 38.8187 36.4808 37.9812C37.8745 36.3062 40.2683 35.8125 42.1745 36.8125L42.6558 37.0625L44.012 35.7062C44.762 34.9562 45.3745 34.325 45.3745 34.2937C45.3745 34.2062 44.2308 33.5 43.5308 33.1562C42.7808 32.7937 41.9245 32.4937 41.1745 32.3437C40.5745 32.225 39.362 32.175 38.787 32.25Z" fill="url(#paint2_linear_1115_6108)"/>
<path d="M39.6245 38.1375C38.4558 38.2688 37.4058 39.3313 37.262 40.5188C37.1433 41.4813 37.412 42.3 38.0558 42.9438C38.6995 43.5875 39.5183 43.8563 40.4808 43.7375C41.6745 43.5938 42.7183 42.55 42.862 41.3563C42.9245 40.8688 42.862 40.2375 42.7183 39.9L42.6183 39.6625L40.7183 41.5625L40.0745 40.925L39.437 40.2813L41.3308 38.3875L41.087 38.2813C40.762 38.1438 40.1245 38.0813 39.6245 38.1375Z" fill="url(#paint3_linear_1115_6108)"/>
<defs>
<linearGradient id="paint0_linear_1115_6108" x1="18.7992" y1="18.8" x2="64.2302" y2="41.5639" gradientUnits="userSpaceOnUse">
<stop stop-color="#EE1A13"/>
<stop offset="1" stop-color="#FB6F03"/>
</linearGradient>
<linearGradient id="paint1_linear_1115_6108" x1="18.7992" y1="18.8" x2="64.2302" y2="41.5639" gradientUnits="userSpaceOnUse">
<stop stop-color="#EE1A13"/>
<stop offset="1" stop-color="#FB6F03"/>
</linearGradient>
<linearGradient id="paint2_linear_1115_6108" x1="18.7992" y1="18.8" x2="64.2302" y2="41.5639" gradientUnits="userSpaceOnUse">
<stop stop-color="#EE1A13"/>
<stop offset="1" stop-color="#FB6F03"/>
</linearGradient>
<linearGradient id="paint3_linear_1115_6108" x1="18.7992" y1="18.8" x2="64.2302" y2="41.5639" gradientUnits="userSpaceOnUse">
<stop stop-color="#EE1A13"/>
<stop offset="1" stop-color="#FB6F03"/>
</linearGradient>
</defs>
</svg>
