<svg width="135" height="66" viewBox="0 0 135 66" fill="none" xmlns="http://www.w3.org/2000/svg">
<g clip-path="url(#clip0_1115_6374)">
<path fill-rule="evenodd" clip-rule="evenodd" d="M12.1925 17H41.1842L41.1931 20.1144H24.9585L17.3583 44.2986H9.5L17.1001 20.1144H10.7948L12.1925 17Z" fill="#585655"/>
<path fill-rule="evenodd" clip-rule="evenodd" d="M33.2446 41.9214C32.2713 41.9214 32.2242 40.5887 33.1034 37.9217C33.789 35.8418 34.9815 34.362 36.6816 33.4818C37.3682 33.1279 38.0084 32.6913 38.5877 32.182L36.6823 37.9612C35.8128 40.6018 34.6666 41.9214 33.2446 41.9214ZM43.2695 42.1612C42.5088 42.1612 42.3344 41.5347 42.7479 40.2816L46.7815 28.0426C47.7658 25.0561 45.6626 23.5625 40.4747 23.5625C35.0109 23.5625 31.7527 25.1628 30.6977 28.3628C30.5175 28.9096 30.3667 29.4967 30.2482 30.1225L33.4042 30.8229C33.3925 29.7964 33.4918 28.9696 33.6985 28.3423C34.3577 26.3421 35.7966 25.342 38.0176 25.342C39.9384 25.342 40.5586 26.3764 39.8773 28.4425C39.3587 30.0158 37.2429 31.3617 33.5308 32.4817C29.4876 33.696 26.9731 35.8015 25.9851 38.8026C24.6837 42.7483 26.0219 44.7215 30.0025 44.7215C32.1352 44.7215 34.0369 43.9092 35.7091 42.2818C35.7429 43.842 36.9332 44.622 39.2792 44.622C40.8631 44.622 42.6044 44.2762 44.5054 43.5824L44.4568 41.7416C43.9007 42.0216 43.5063 42.1612 43.2695 42.1612ZM70.2617 23.6224L63.4457 44.3018H56.6159L57.6767 41.0821C55.3145 43.4823 52.8978 44.6813 50.4275 44.6813C47.0971 44.6813 46.0032 42.9479 47.1457 39.4818L52.2026 24.143C54.5325 24.0362 56.866 23.863 59.2032 23.6224L54.0351 39.302C53.5864 40.661 53.7482 41.3424 54.5229 41.3424C56.5673 41.3424 58.3645 38.9964 59.9116 34.3028L63.2611 24.1437C65.5784 24.0362 67.9119 23.863 70.2617 23.6224ZM85.0786 31.4618H80.402C80.8228 30.6759 81.1575 30.0962 81.4047 29.7226C81.7593 29.1757 82.0094 28.6815 82.1551 28.2429C82.4369 27.3897 82.2905 26.9628 81.7166 26.9628C81.2797 26.9628 80.6749 27.5264 79.9047 28.653C79.1345 29.7796 78.5423 30.9691 78.1303 32.2229L74.1489 44.3018H67.3183L73.965 24.143L75.2855 24.1627C76.8576 24.1627 78.7512 23.9821 80.9655 23.6224L79.8709 26.9423C81.71 24.7293 83.4359 23.6224 85.0448 23.6224C87.2385 23.6224 87.9109 24.9157 87.059 27.5023C86.8332 28.1822 86.4698 28.9615 85.9688 29.8425C85.6756 30.3842 85.3789 30.924 85.0786 31.4618ZM108.413 23.6224L101.596 44.3018H94.7688L95.8288 41.0821C93.4652 43.4823 91.05 44.6813 88.5796 44.6813C85.2493 44.6813 84.1554 42.9479 85.2979 39.4818L90.354 24.143C92.6832 24.0362 95.0182 23.863 97.3561 23.6224L92.1866 39.302C91.7386 40.661 91.9019 41.3424 92.6751 41.3424C94.7195 41.3424 96.516 38.9964 98.0631 34.3028L101.413 24.1437C103.731 24.0362 106.064 23.863 108.413 23.6224ZM125.096 29.322L121.581 29.9427C122.574 26.9299 121.76 25.4224 119.141 25.4224C117.532 25.4224 116.494 26.1293 116.029 27.5425C115.686 28.5821 116.703 29.7021 119.076 30.9026C122.707 32.7566 124.052 35.1099 123.11 37.9619C121.612 42.5092 118.161 44.7821 112.761 44.7821C107.048 44.7821 104.94 42.5099 106.439 37.9619L110.207 37.2023C110.026 37.6077 109.864 38.0218 109.723 38.4429C109.337 39.6163 109.459 40.6362 110.09 41.5032C110.722 42.3696 111.66 42.8031 112.909 42.8031C114.555 42.8031 115.624 42.0567 116.117 40.5623C116.446 39.563 115.482 38.4568 113.224 37.2432C109.826 35.4031 108.604 33.0424 109.552 30.1627C110.181 28.2568 111.463 26.6923 113.399 25.4728C115.336 24.2534 117.507 23.6437 119.914 23.6437C124.194 23.6422 125.92 25.5357 125.096 29.322ZM66.9239 45.2457H73.7266V49.0824L72.8659 50.0021H67.8288L66.9674 48.9391L66.9239 45.2457Z" fill="#585655"/>
</g>
<defs>
<clipPath id="clip0_1115_6374">
<rect width="134" height="66" fill="white" transform="translate(0.5)"/>
</clipPath>
</defs>
</svg>
