<svg width="24" height="24" viewBox="0 0 24 24" fill="none" xmlns="http://www.w3.org/2000/svg">
<path d="M2.52734 5.0625C2.19922 5.18359 2 5.48438 2 5.85938C2 6.25 2.22656 6.56641 2.58203 6.67578C2.79688 6.73828 21.2031 6.73828 21.418 6.67578C21.7734 6.56641 22 6.25 22 5.85938C22 5.47656 21.8008 5.17969 21.457 5.05859C21.3047 5.00781 20.2617 5 11.9844 5.00391C3.95312 5.00391 2.66406 5.01172 2.52734 5.0625Z" fill="#101118"/>
<path d="M2.42578 11.4961C2.33203 11.5469 2.20312 11.6641 2.13672 11.7539C2.02734 11.9062 2.01953 11.9492 2.01953 12.2461C2.01953 12.543 2.02734 12.5859 2.13672 12.7383C2.20312 12.8281 2.33203 12.9453 2.42578 12.9961L2.59766 13.0859H12H21.4023L21.5742 12.9961C21.668 12.9453 21.8008 12.8281 21.8633 12.7383C21.9727 12.5859 21.9805 12.543 21.9805 12.2461C21.9805 11.9492 21.9727 11.9062 21.8633 11.7539C21.8008 11.6641 21.668 11.5469 21.5742 11.4961L21.4023 11.4062H12H2.59766L2.42578 11.4961Z" fill="#101118"/>
<path d="M2.57422 17.8232C2.21875 17.9365 2 18.2412 2 18.6318C2 19.0186 2.23828 19.3545 2.57422 19.4482C2.78125 19.5068 21.2188 19.5068 21.4258 19.4482C21.7617 19.3545 22 19.0186 22 18.6318C22 18.2295 21.7617 17.9092 21.3906 17.8154C21.1406 17.7529 2.77734 17.7607 2.57422 17.8232Z" fill="#101118"/>
</svg>
