<svg width="24" height="25" viewBox="0 0 24 25" fill="none" xmlns="http://www.w3.org/2000/svg">
<rect y="0.993652" width="24" height="24" rx="12" fill="#BDBDC4"/>
<path d="M18.7742 8.76232C18.2653 8.98745 17.7255 9.1353 17.1729 9.20098C17.7554 8.85261 18.1913 8.30433 18.3995 7.65832C17.8529 7.98365 17.2535 8.21165 16.6289 8.33498C16.2093 7.88604 15.6531 7.58829 15.0468 7.48804C14.4406 7.38779 13.8182 7.49064 13.2764 7.78062C12.7346 8.07059 12.3038 8.53144 12.051 9.09151C11.7981 9.65159 11.7374 10.2795 11.8782 10.8777C10.7696 10.8221 9.6851 10.534 8.69507 10.0321C7.70504 9.53019 6.83163 8.82568 6.13155 7.96432C5.88374 8.38995 5.75352 8.8738 5.75421 9.36632C5.75421 10.333 6.24621 11.187 6.99421 11.687C6.55155 11.673 6.11864 11.5535 5.73155 11.3383V11.373C5.73168 12.0168 5.95446 12.6407 6.36211 13.139C6.76976 13.6373 7.3372 13.9793 7.96821 14.107C7.55729 14.2183 7.12642 14.2348 6.70821 14.155C6.88612 14.7091 7.23288 15.1938 7.69994 15.5411C8.167 15.8883 8.73097 16.0808 9.31288 16.0917C8.73453 16.5459 8.07233 16.8816 7.36413 17.0798C6.65594 17.2779 5.91563 17.3345 5.18555 17.2463C6.46001 18.0659 7.94361 18.5011 9.45888 18.4997C14.5875 18.4997 17.3922 14.251 17.3922 10.5663C17.3922 10.4463 17.3889 10.325 17.3835 10.2063C17.9295 9.81176 18.4006 9.323 18.7749 8.76298L18.7742 8.76232Z" fill="#1B1D33"/>
</svg>
