<svg width="191" height="7" viewBox="0 0 191 7" fill="none" xmlns="http://www.w3.org/2000/svg">
<path fill-rule="evenodd" clip-rule="evenodd" d="M32.6564 4.77673C27.9724 4.99564 23.1297 5.22187 18.3637 5.39495C16.6374 5.45736 8.66071 5.67384 7.54973 5.6831C6.90478 5.68895 6.05649 5.76647 5.15933 5.84887C4.04747 5.95077 1.97998 6.14042 1.67802 5.94393C1.67156 5.93955 1.65707 5.90395 1.70769 5.81814C1.925 5.45052 4.69852 5.1424 9.95147 4.90252C10.7465 4.86595 11.3199 4.83961 11.6236 4.81231C13.0069 4.68652 14.4015 4.57437 15.8022 4.47344C27.7368 4.2321 39.7237 3.56807 51.4087 2.91961C53.8549 2.78407 56.3212 2.64753 58.8007 2.51345C90.6334 1.26237 120.743 1.28677 148.482 2.58807C148.576 2.59294 148.67 2.59683 148.763 2.60171C118.816 2.6373 84.2643 2.89521 48.5636 4.10143C43.2548 4.28086 37.8666 4.53295 32.6564 4.77673ZM166.861 2.21752C168.083 2.29407 169.312 2.3594 170.545 2.42474C172.353 2.5203 174.222 2.61879 176.037 2.7553C176.621 2.79918 178.032 2.87573 179.665 2.96349C179.886 2.97568 180.12 2.98836 180.364 3.00152C179.748 2.98982 179.129 2.96981 178.522 2.9508C177.87 2.92983 177.217 2.90937 176.567 2.89767C168.317 2.75091 159.894 2.29601 151.748 1.85671C149.642 1.74262 147.539 1.6295 145.44 1.52078C142.879 1.38914 140.314 1.27212 137.742 1.16973C141.872 1.25408 145.925 1.38769 149.983 1.57247C152.278 1.67681 154.634 1.74652 156.912 1.81429C160.191 1.91181 163.581 2.01226 166.861 2.21752ZM183.009 2.11416C181.042 1.8972 178.704 1.64999 176.286 1.46325C174.316 1.31162 172.287 1.21314 170.325 1.11855C169.229 1.0659 168.135 1.01324 167.051 0.951318C163.617 0.755319 160.097 0.652922 156.693 0.55346C154.535 0.491052 152.305 0.425737 150.129 0.337976C143.683 0.0776188 137.038 -0.0272095 129.21 0.00594453L124.613 0.024957C110.411 0.081514 95.7267 0.14049 81.276 0.611474C77.368 0.738727 73.4372 0.899644 69.509 1.08004C60.9938 1.31797 52.7186 1.61538 44.8082 1.92693C42.3 2.02591 39.7708 2.11221 37.2329 2.199C28.6601 2.49153 19.7967 2.7948 11.319 3.60317C11.0101 3.63243 10.4123 3.66216 9.65475 3.70019C8.9042 3.73773 8.15628 3.77722 7.42668 3.82208C6.3314 3.8367 5.237 3.84839 4.14347 3.85571C3.8738 3.85766 3.65649 3.98151 3.65998 4.13265C3.65998 4.13753 3.66086 4.1424 3.66086 4.14678C1.68587 4.39446 0.27118 4.75917 0.0399069 5.34911C-0.0718023 5.63434 0.0521244 5.90199 0.397724 6.12286C1.48602 6.81909 4.96558 6.99999 8.29068 6.99999C10.3765 6.99999 12.4021 6.9288 13.7374 6.86932C25.9102 6.72354 38.2968 6.2116 50.275 5.71673C55.8063 5.48806 61.5262 5.25208 67.1387 5.0556C72.2581 4.87617 77.5713 4.65483 82.7108 4.44079C102.176 3.62998 122.306 2.79187 141.377 3.72457C156.049 4.44226 172.988 4.72699 190.362 4.54757C190.522 4.54611 190.672 4.50028 190.761 4.4252L190.919 4.29159C191.042 4.18676 191.023 4.04829 190.872 3.95565C190.247 3.57487 189.34 3.37256 188.297 3.2731C188.33 2.94887 187.872 2.65145 183.009 2.11416Z" fill="url(#paint0_linear_1115_6071)"/>
<defs>
<linearGradient id="paint0_linear_1115_6071" x1="71.7033" y1="1.7619" x2="131.195" y2="1.7619" gradientUnits="userSpaceOnUse">
<stop stop-color="#ED1915"/>
<stop offset="1" stop-color="#FB7103"/>
</linearGradient>
</defs>
</svg>
