<svg width="107" height="4" viewBox="0 0 107 4" fill="none" xmlns="http://www.w3.org/2000/svg">
<path fill-rule="evenodd" clip-rule="evenodd" d="M18.6234 2.72956C16.024 2.85465 13.3364 2.98392 10.6914 3.08283C9.73335 3.11849 5.30647 3.24219 4.6899 3.24749C4.33197 3.25083 3.8612 3.29513 3.36329 3.34221C2.74624 3.40044 1.59884 3.50881 1.43125 3.39653C1.42767 3.39403 1.41963 3.37369 1.44772 3.32465C1.56832 3.11458 3.10756 2.93851 6.02281 2.80144C6.46404 2.78054 6.78225 2.76549 6.9508 2.74989C7.71848 2.67801 8.49247 2.61392 9.26983 2.55625C15.8932 2.41834 22.5456 2.03889 29.0305 1.66835C30.3881 1.5909 31.7568 1.51287 33.1328 1.43626C50.7992 0.721355 67.5089 0.735296 82.9037 1.4789C82.956 1.48168 83.0079 1.4839 83.0597 1.48669C66.44 1.50703 47.2645 1.65441 27.4515 2.34368C24.5053 2.4462 21.5149 2.59026 18.6234 2.72956ZM93.1035 1.26716C93.7815 1.3109 94.464 1.34823 95.1479 1.38556C96.1514 1.44017 97.1889 1.49645 98.1958 1.57446C98.5198 1.59953 99.303 1.64328 100.209 1.69343C100.332 1.70039 100.462 1.70763 100.597 1.71515C100.255 1.70847 99.9118 1.69704 99.5752 1.68617C99.213 1.67419 98.8507 1.6625 98.4903 1.65581C93.9113 1.57195 89.237 1.312 84.7161 1.06098C83.5474 0.995785 82.3801 0.931144 81.2153 0.869015C79.7943 0.793791 78.3708 0.726925 76.9434 0.668418C79.2353 0.716617 81.4846 0.792964 83.7368 0.898556C85.0101 0.958177 86.3178 0.998013 87.582 1.03674C89.4016 1.09246 91.2833 1.14986 93.1035 1.26716ZM102.065 1.20809C100.974 1.08411 99.676 0.942849 98.3339 0.836143C97.2407 0.749497 96.1146 0.693223 95.0258 0.639174C94.4175 0.609084 93.8106 0.578994 93.209 0.54361C91.3032 0.431611 89.3498 0.373098 87.4604 0.316263C86.2631 0.280601 85.0251 0.243278 83.8177 0.193129C80.2403 0.0443536 76.5526 -0.0155483 72.208 0.00339688L69.657 0.0142611C61.7753 0.0465794 53.6258 0.0802802 45.6061 0.349414C43.4372 0.42213 41.2557 0.514082 39.0757 0.617166C34.35 0.753126 29.7575 0.923076 25.3674 1.10111C23.9754 1.15766 22.5718 1.20698 21.1633 1.25657C16.4056 1.42373 11.4867 1.59703 6.78177 2.05896C6.61031 2.07567 6.27854 2.09266 5.85813 2.11439C5.4416 2.13585 5.02652 2.15841 4.62161 2.18404C4.01376 2.1924 3.4064 2.19908 2.79952 2.20326C2.64986 2.20438 2.52925 2.27515 2.53119 2.36152C2.53119 2.3643 2.53168 2.36708 2.53168 2.36959C1.43562 2.51112 0.650498 2.71952 0.522147 3.05664C0.460152 3.21962 0.528928 3.37257 0.720727 3.49878C1.3247 3.89662 3.25577 4 5.10111 4C6.25868 4 7.38284 3.95931 8.12388 3.92532C14.8795 3.84202 21.7537 3.54949 28.4013 3.2667C31.4711 3.13604 34.6454 3.00119 37.7602 2.88891C40.6014 2.78638 43.55 2.6599 46.4023 2.53759C57.2051 2.07427 68.3764 1.59535 78.9607 2.12833C87.103 2.53843 96.5035 2.70114 106.146 2.59861C106.235 2.59778 106.318 2.57159 106.367 2.52868L106.455 2.45234C106.524 2.39244 106.513 2.31331 106.429 2.26037C106.082 2.04278 105.579 1.92718 105 1.87034C105.018 1.68507 104.764 1.51512 102.065 1.20809Z" fill="url(#paint0_linear_1474_15177)"/>
<defs>
<linearGradient id="paint0_linear_1474_15177" x1="40.2934" y1="1.0068" x2="73.3098" y2="1.0068" gradientUnits="userSpaceOnUse">
<stop stop-color="#ED1915"/>
<stop offset="1" stop-color="#FB7103"/>
</linearGradient>
</defs>
</svg>
